<?xml version="1.0" encoding="UTF-8"?>
<svg version="1.1" xmlns="http://www.w3.org/2000/svg" width="652" height="687">
<path d="M0 0 C215.16 0 430.32 0 652 0 C652 226.71 652 453.42 652 687 C436.84 687 221.68 687 0 687 C0 460.29 0 233.58 0 0 Z " fill="#F1F4F9" transform="translate(0,0)"/>
<path d="M0 0 C0.20427229 4.35346904 0.32796524 8.70569897 0.4375 13.0625 C0.52547852 14.90618164 0.52547852 14.90618164 0.61523438 16.78710938 C0.78504872 25.78726972 0.78504872 25.78726972 -1.48828125 29.29907227 C-3.34765625 31.1328125 -3.34765625 31.1328125 -5.20336914 32.58642578 C-7.17119396 34.13469398 -8.42999896 35.77833775 -9.875 37.8125 C-13.52333243 42.09276068 -18.02119826 44.73236088 -22.8125 47.5625 C-23.57868652 48.01665283 -24.34487305 48.47080566 -25.13427734 48.9387207 C-29.2994029 51.31277749 -29.2994029 51.31277749 -31 52 C-31.66 51.67 -32.32 51.34 -33 51 C-24.57068035 37.78004748 -15.41488199 25.82614883 -4 15 C-23.1031267 21.70059081 -39.34785153 31.63906233 -54.25 45.3125 C-55.21679688 46.19252686 -55.21679688 46.19252686 -56.203125 47.09033203 C-59.45205926 50.15633868 -61.76941994 52.56824885 -63 57 C-55.84597476 61.55557713 -48.88432303 65.79281775 -41 69 C-40.34 67.02 -39.68 65.04 -39 63 C-38.67 63 -38.34 63 -38 63 C-37.77636071 67.01939063 -37.61371514 71.03634772 -37.50561523 75.06054688 C-37.46053833 76.42674856 -37.3992483 77.7925203 -37.32104492 79.15722656 C-36.68851377 90.48490864 -36.68851377 90.48490864 -39.90283203 94.19824219 C-42.21923533 95.7602358 -44.42871998 96.91760997 -47 98 C-48.335684 98.66194447 -49.6698428 99.32701853 -51 100 C-49.83760783 92.80684375 -48.25496388 85.93025566 -46 79 C-47.0621875 78.48050781 -48.124375 77.96101563 -49.21875 77.42578125 C-62.09165804 71.08516665 -62.09165804 71.08516665 -66.875 68 C-69.66238955 65.82031543 -69.66238955 65.82031543 -72 66 C-73.22983929 67.56177246 -73.22983929 67.56177246 -74.390625 69.62890625 C-75.07970947 70.79897217 -75.07970947 70.79897217 -75.78271484 71.99267578 C-76.26691895 72.84071777 -76.75112305 73.68875977 -77.25 74.5625 C-77.74580566 75.42858887 -78.24161133 76.29467773 -78.75244141 77.18701172 C-89.7181455 96.71394398 -95.24611502 117.78412353 -97 140 C-90.07 140 -83.14 140 -76 140 C-76 143.63 -76 147.26 -76 151 C-82.93 151 -89.86 151 -97 151 C-93.93464922 179.53134186 -86.41950344 206.03162816 -68.43359375 228.99609375 C-67 231 -67 231 -67 233 C-66.34 233 -65.68 233 -65 233 C-65.02212303 232.42537962 -65.04424606 231.85075924 -65.06703949 231.25872612 C-65.5991189 217.21933529 -65.99514873 203.18146782 -66.24349213 189.13410759 C-66.36682554 182.33977282 -66.53456708 175.55219698 -66.81054688 168.76220703 C-67.07710875 162.20074847 -67.21505922 155.64364585 -67.27705383 149.07703018 C-67.3211829 146.58108523 -67.40739112 144.08549697 -67.53752136 141.592556 C-68.33489635 125.67401725 -68.33489635 125.67401725 -65 119 C-58.53312383 112.37472981 -49.69076597 108.00864068 -41 105 C-40.01 105 -39.02 105 -38 105 C-37.67 128.43 -37.34 151.86 -37 176 C-29.43706379 166.8164346 -21.95922227 157.70873797 -14.65625 148.34375 C-11.50719966 144.34436262 -8.21156009 140.47425517 -4.90673828 136.60351562 C-1.61879348 132.74860283 1.56361116 128.82524457 4.7109375 124.85546875 C8.9542212 119.56222577 13.2912753 114.34551582 17.609375 109.11328125 C20.3142327 105.83532249 23.00447845 102.54587 25.6875 99.25 C28.93419057 95.27310579 32.23715267 91.34847164 35.5625 87.4375 C43.56661074 78.26188394 43.56661074 78.26188394 50.6340332 68.3918457 C53 66 53 66 56.48339844 65.43237305 C57.85897802 65.4331597 59.23472587 65.46112647 60.609375 65.51171875 C61.33618469 65.51879349 62.06299438 65.52586823 62.81182861 65.53315735 C65.12561457 65.5610727 67.43694998 65.62379617 69.75 65.6875 C71.32157954 65.71258701 72.89319716 65.73539949 74.46484375 65.75585938 C78.3108352 65.81088868 82.15500265 65.89713334 86 66 C86 66.66 86 67.32 86 68 C85.34 68 84.68 68 84 68 C83.62101562 68.84498047 83.62101562 68.84498047 83.234375 69.70703125 C81.82346289 72.32793444 80.15911815 74.40158222 78.25 76.6875 C77.44433594 77.65816406 76.63867188 78.62882812 75.80859375 79.62890625 C75.36112793 80.16531738 74.91366211 80.70172852 74.45263672 81.25439453 C71.72466693 84.5325431 69.02131991 87.83102695 66.3125 91.125 C62.67207279 95.54745955 59.0284941 99.96723305 55.375 104.37890625 C49.49926051 111.48159831 43.69743568 118.62352207 38.04223633 125.90307617 C34.3327437 130.64657371 30.42887184 135.20193338 26.48217773 139.74853516 C22.53377416 144.31956424 18.787567 149.02231702 15.09399414 153.80053711 C11.39914708 158.55853362 7.52733122 163.14630611 3.52709961 167.65063477 C-0.18635884 171.84842255 -0.18635884 171.84842255 -2 177 C-0.64238215 179.31631482 0.62354386 181.01035053 2.375 183 C3.41115965 184.24548143 4.44486422 185.49300798 5.4765625 186.7421875 C6.04407227 187.42120117 6.61158203 188.10021484 7.19628906 188.79980469 C10.49316966 192.82139211 13.61126368 196.97964298 16.75 201.125 C17.43046387 202.01960937 18.11092773 202.91421875 18.81201172 203.8359375 C24.02534696 210.69397775 29.19544156 217.58392802 34.35668945 224.48120117 C38.85558665 230.4881678 43.38678641 236.46970493 47.9375 242.4375 C48.59919189 243.30544189 49.26088379 244.17338379 49.94262695 245.06762695 C53.32585316 249.50259075 56.71474296 253.93313589 60.109375 258.359375 C68.59699594 269.44091322 76.8958868 280.63481385 85 292 C81.21543693 294.52304204 77.70949408 295.16526807 73.3125 296.125 C72.14557617 296.39763672 72.14557617 296.39763672 70.95507812 296.67578125 C65.86205368 297.80567658 61.2105112 298.56359718 56 298 C53.671875 296.15625 53.671875 296.15625 51.75 293.5 C50.99332031 292.48679687 50.23664063 291.47359375 49.45703125 290.4296875 C48.86075928 289.5958252 48.86075928 289.5958252 48.25244141 288.74511719 C46.96936415 286.95731285 45.65289564 285.19945122 44.32421875 283.4453125 C42.33223625 280.81308662 40.35312513 278.17192291 38.3828125 275.5234375 C34.56463785 270.40283344 30.68879373 265.32666818 26.8125 260.25 C21.99594713 253.93880935 17.19966753 247.61498338 12.44921875 241.25390625 C10.44640315 238.58319632 8.42192822 235.92943469 6.39453125 233.27734375 C5.73211426 232.41077148 5.06969727 231.54419922 4.38720703 230.65136719 C3.00691432 228.84584427 1.62638144 227.04050493 0.24560547 225.23535156 C-5.15561225 218.15474229 -10.44875747 210.99947456 -15.65893555 203.77709961 C-16.47358276 202.65766968 -16.47358276 202.65766968 -17.3046875 201.515625 C-17.77890137 200.85852539 -18.25311523 200.20142578 -18.74169922 199.52441406 C-19.94257776 197.85991822 -19.94257776 197.85991822 -22 197 C-22.2165625 197.52464844 -22.433125 198.04929687 -22.65625 198.58984375 C-24.52793072 201.946899 -26.98316262 204.67171391 -29.5 207.5625 C-35.23213809 213.59755614 -35.23213809 213.59755614 -37.31884766 221.2878418 C-37.33871735 222.14850754 -37.35858704 223.00917328 -37.37905884 223.8959198 C-37.39061005 224.82100845 -37.40216125 225.74609711 -37.4140625 226.69921875 C-37.43342865 227.64940384 -37.4527948 228.59958893 -37.4727478 229.5785675 C-37.53254912 232.6147869 -37.57893129 235.65104419 -37.625 238.6875 C-37.66317926 240.74545928 -37.70223096 242.80340258 -37.7421875 244.86132812 C-37.83825119 249.9074223 -37.92228031 254.95359129 -38 260 C-37.37853592 260.30834778 -36.75707184 260.61669556 -36.11677551 260.93438721 C-34.09903735 261.95014329 -32.15239385 263.03772557 -30.19921875 264.171875 C-15.23702307 272.75460706 0.64720508 280.72051017 18.04296875 282.59375 C33.5088904 284.27874761 33.5088904 284.27874761 38.125 289.375 C40.30533489 292.41077729 41.70229905 295.50238697 43 299 C10.32956241 299.35302045 -23.39165183 288.55192274 -49 268 C-49.85078125 267.3503125 -50.7015625 266.700625 -51.578125 266.03125 C-83.43504316 241.06734922 -102.98423096 206.29784967 -109.578125 166.51171875 C-114.35553995 124.65101495 -103.67765459 84.06665407 -77.859375 50.7109375 C-61.15065164 29.89786619 -28.72911866 0 0 0 Z " fill="#0D3453" transform="translate(302,91)"/>
<path d="M0 0 C0 14.19 0 28.38 0 43 C-4.26511313 41.29395475 -6.61418999 39.90212286 -10 37 C-14.14530405 38.54858739 -15.97435787 41.25366302 -18.5625 44.75 C-19.45360911 45.93941534 -20.34556449 47.12819705 -21.23828125 48.31640625 C-21.69541504 48.92887207 -22.15254883 49.54133789 -22.62353516 50.17236328 C-24.78779807 53.04601922 -27.01860775 55.86586588 -29.25 58.6875 C-38.14400113 69.97866891 -46.97172458 81.32062645 -55.6875 92.75 C-60.94023978 99.63731153 -66.26224639 106.46595361 -71.63085938 113.26318359 C-73.07542065 115.09567448 -74.51485049 116.93210257 -75.953125 118.76953125 C-76.44216309 119.39384033 -76.93120117 120.01814941 -77.43505859 120.66137695 C-78.36048004 121.84302309 -79.28533284 123.02511493 -80.20947266 124.20776367 C-83.07471813 127.86212415 -86.01240349 131.44486724 -89 135 C-87.42424923 139.93608674 -84.53315599 143.48826293 -81.375 147.5 C-80.19623008 149.01923299 -79.01786318 150.53877875 -77.83984375 152.05859375 C-76.90374268 153.26104736 -76.90374268 153.26104736 -75.94873047 154.48779297 C-72.58425555 158.8251078 -69.26197534 163.19449773 -65.9375 167.5625 C-65.25961426 168.45219482 -64.58172852 169.34188965 -63.88330078 170.25854492 C-59.33741929 176.22905072 -54.80092498 182.20661159 -50.32519531 188.22998047 C-47.78313244 191.64834452 -45.20139615 195.02588276 -42.55859375 198.3671875 C-41.99495117 199.08994873 -41.43130859 199.81270996 -40.85058594 200.55737305 C-39.76840243 201.94346394 -38.67452246 203.32052789 -37.56738281 204.68676758 C-37.08495117 205.30962646 -36.60251953 205.93248535 -36.10546875 206.57421875 C-35.67387451 207.11651123 -35.24228027 207.65880371 -34.79760742 208.2175293 C-33.63178051 210.8228866 -34.1266015 212.32484444 -35 215 C-36.35107422 216.92871094 -36.35107422 216.92871094 -38.0546875 218.734375 C-38.66957031 219.39050781 -39.28445313 220.04664063 -39.91796875 220.72265625 C-40.56378906 221.39167969 -41.20960938 222.06070313 -41.875 222.75 C-42.51308594 223.43449219 -43.15117187 224.11898437 -43.80859375 224.82421875 C-48.58746833 229.86248944 -48.58746833 229.86248944 -52 231 C-58.57718009 223.40744879 -64.62775926 215.52975359 -70.54345703 207.41479492 C-75.14976609 201.1110009 -79.90405609 194.94061054 -84.72705078 188.80175781 C-89.75898213 182.37120178 -94.60186915 175.81035672 -99.3828125 169.19140625 C-99.929375 168.43988281 -100.4759375 167.68835938 -101.0390625 166.9140625 C-101.51553223 166.2535791 -101.99200195 165.5930957 -102.48291016 164.91259766 C-104.17900473 162.77432844 -106.03961447 160.89604142 -108 159 C-116.02560078 166.50520044 -119.59442726 173.4189679 -120.20797729 184.49813843 C-120.3388651 190.4625337 -120.33051659 196.41624093 -120.21887207 202.38012695 C-120.16611432 205.83996781 -120.17684101 209.29961072 -120.18164062 212.75976562 C-120.18193719 219.50759099 -120.1137333 226.25315554 -120 233 C-122.94099684 230.12056037 -125.71873803 227.25425457 -128.234375 223.99609375 C-129.09675781 222.88331055 -129.09675781 222.88331055 -129.9765625 221.74804688 C-130.85441406 220.60432617 -130.85441406 220.60432617 -131.75 219.4375 C-132.31976563 218.70208984 -132.88953125 217.96667969 -133.4765625 217.20898438 C-134.64569064 215.69561295 -135.7989602 214.16985279 -136.9357605 212.63204956 C-138.94446354 209.96841138 -138.94446354 209.96841138 -141.29446411 207.67446899 C-150.00415471 198.12655422 -149.31902582 188.17384125 -149.1953125 175.77734375 C-149.20138691 173.62365332 -149.21013135 171.46996893 -149.22140503 169.31629944 C-149.23461648 164.81988315 -149.21557702 160.32508445 -149.17333984 155.82885742 C-149.1220269 150.08944358 -149.15163397 144.35381479 -149.20549202 138.61453915 C-149.23814304 134.17281489 -149.22760638 129.7319762 -149.20434189 125.29022408 C-149.19837493 123.17529403 -149.20557584 121.06028131 -149.22665787 118.94544792 C-149.37066858 100.44486046 -149.37066858 100.44486046 -143.70654297 93.46313477 C-142.16328977 91.94888964 -140.59453276 90.46014862 -139 89 C-137.47519749 87.18724287 -135.97217361 85.35575213 -134.5 83.5 C-133.7678125 82.60667969 -133.035625 81.71335937 -132.28125 80.79296875 C-130.67072926 78.82118394 -129.06656787 76.84528393 -127.46875 74.86328125 C-126.6540625 73.85652344 -125.839375 72.84976563 -125 71.8125 C-124.2575 70.89082031 -123.515 69.96914062 -122.75 69.01953125 C-122.1725 68.35308594 -121.595 67.68664062 -121 67 C-120.67 67 -120.34 67 -120 67 C-119.67 88.12 -119.34 109.24 -119 131 C-110.07175853 119.64195345 -110.07175853 119.64195345 -101.1875 108.25 C-100.60693848 107.50322998 -100.02637695 106.75645996 -99.42822266 105.98706055 C-96.42197576 102.11986401 -93.41860535 98.25045733 -90.41796875 94.37890625 C-84.49387109 86.74092382 -78.52994862 79.14181263 -72.46826172 71.61254883 C-68.73867166 66.96324063 -65.1070281 62.24482267 -61.5 57.5 C-56.41315503 50.8088948 -51.2146584 44.21978627 -45.9453125 37.671875 C-41.24259692 31.82423269 -36.62521199 25.90898146 -32 20 C-32.78761719 19.22269531 -33.57523437 18.44539063 -34.38671875 17.64453125 C-36.49671181 15.50930659 -38.27919083 13.44536039 -40 11 C-32.72514612 8.10285342 -25.27609608 5.95782533 -17.75 3.8125 C-16.48414063 3.44447266 -15.21828125 3.07644531 -13.9140625 2.69726562 C-12.69976562 2.34986328 -11.48546875 2.00246094 -10.234375 1.64453125 C-9.13319336 1.32846924 -8.03201172 1.01240723 -6.89746094 0.68676758 C-4 0 -4 0 0 0 Z " fill="#0C3454" transform="translate(498,120)"/>
<path d="M0 0 C9.24 0 18.48 0 28 0 C28.33 16.5 28.66 33 29 50 C41.28072167 37.76263003 41.28072167 37.76263003 53 25 C54.29329263 23.64802803 55.6014519 22.30973643 56.9375 21 C57.60523438 20.34 58.27296875 19.68 58.9609375 19 C61 17 61 17 63.0390625 15 C67.09037768 10.99561125 70.93985564 6.88777624 74.65234375 2.56640625 C75.40849619 1.68751602 76.18017851 0.81982149 77 0 C79.44830426 -0.08843793 81.86820599 -0.11528752 84.31640625 -0.09765625 C85.41298805 -0.09553383 85.41298805 -0.09553383 86.53172302 -0.09336853 C88.87535632 -0.08775408 91.21889539 -0.07519922 93.5625 -0.0625 C95.14778508 -0.05748686 96.73307166 -0.05292363 98.31835938 -0.04882812 C102.2122761 -0.03777997 106.10612205 -0.02050572 110 0 C105.63943678 5.16134567 101.13684821 10.14858776 96.5 15.0625 C95.80656494 15.79911865 95.11312988 16.5357373 94.39868164 17.29467773 C89.25764898 22.7306541 84.00168189 28.03748494 78.68237305 33.29833984 C75.06973722 36.88516737 71.60948616 40.54913389 68.33203125 44.44921875 C66.95880466 46.04796055 65.50744542 47.52812851 64 49 C65.44168458 53.43908529 67.88783081 56.50305947 70.9375 59.9375 C74.87222355 64.47482134 78.69071739 69.0693913 82.375 73.8125 C86.33789953 78.90277613 90.36073471 83.93791045 94.4375 88.9375 C98.90910193 94.42686939 103.37474591 99.92070523 107.8125 105.4375 C108.33448975 106.08259521 108.85647949 106.72769043 109.39428711 107.39233398 C113 111.88462732 113 111.88462732 113 113 C84.21207259 115.679018 84.21207259 115.679018 76.19287109 111.55712891 C71.83709395 107.86247039 69.03192987 103.25238196 66.30761719 98.28320312 C64.29383527 94.76698047 61.75640571 91.74488926 59.1875 88.625 C58.30694267 87.49970048 57.42925949 86.37214505 56.5546875 85.2421875 C53.32862176 81.11628427 49.96153122 77.11032417 46.58203125 73.109375 C45 71 45 71 45 69 C40.69114547 72.36300841 37.14405459 75.96081826 33.61328125 80.1328125 C32 82 32 82 30.43115234 83.21557617 C28.30705852 85.86398998 28.56422548 88.06123368 28.48828125 91.41796875 C28.45516846 92.5474292 28.42205566 93.67688965 28.38793945 94.84057617 C28.36304443 96.27506104 28.33814941 97.7095459 28.3125 99.1875 C28.209375 103.745625 28.10625 108.30375 28 113 C18.76 113 9.52 113 0 113 C0 75.71 0 38.42 0 0 Z " fill="#0B3554" transform="translate(225,419)"/>
<path d="M0 0 C9.24 0 18.48 0 28 0 C28.33 16.5 28.66 33 29 50 C38.52981118 40.59123149 38.52981118 40.59123149 47.3984375 30.82421875 C51.04836941 26.66685728 55.09174503 22.87169836 59.0390625 19 C62.9612278 15.12326519 66.69330191 11.16298162 70.26171875 6.95703125 C70.83535156 6.31121094 71.40898437 5.66539062 72 5 C72.73436279 4.10643799 73.46872559 3.21287598 74.2253418 2.29223633 C77.72903173 -0.60227707 80.36436862 -0.64929282 84.70703125 -0.48828125 C85.79512337 -0.47766914 85.79512337 -0.47766914 86.90519714 -0.46684265 C89.20870703 -0.43898406 91.50973251 -0.37627191 93.8125 -0.3125 C95.37952203 -0.28740563 96.9465824 -0.26459444 98.51367188 -0.24414062 C102.34339656 -0.18918681 106.17127797 -0.10298226 110 0 C105.58066138 5.30936501 100.8836894 10.1964358 95.94335938 15.01757812 C93.078943 17.8407304 90.35605259 20.71230331 87.74609375 23.7734375 C84.94875233 27.0159606 81.9915109 30.01058189 78.90625 32.98046875 C78.02195312 33.83447266 77.13765625 34.68847656 76.2265625 35.56835938 C74.38672219 37.33571314 72.53749914 39.09334395 70.6796875 40.84179688 C69.80570312 41.69193359 68.93171875 42.54207031 68.03125 43.41796875 C67.23267578 44.17875732 66.43410156 44.9395459 65.61132812 45.72338867 C63.72795524 47.89086061 63.72795524 47.89086061 64.11572266 50.60888672 C65.35770682 53.9672503 67.51042219 56.32167073 69.875 58.9375 C70.88757505 60.09446871 71.89792726 61.25338594 72.90625 62.4140625 C73.42316406 63.00735352 73.94007813 63.60064453 74.47265625 64.21191406 C76.86261264 67.00987451 79.12045666 69.9051078 81.375 72.8125 C85.35471735 77.92713135 89.40159708 82.97996978 93.5 88 C97.77658415 93.24975257 102.03978202 98.50929828 106.25 103.8125 C106.71599609 104.39322266 107.18199219 104.97394531 107.66210938 105.57226562 C109.61828014 108.04929275 110.99269913 109.97809738 112 113 C80.89737916 115.24764514 80.89737916 115.24764514 74.74609375 110.59765625 C72.3076187 108.00019511 70.61310112 105.03628472 69.01171875 101.86865234 C67.2805796 98.67122496 64.92581422 95.9872327 62.625 93.1875 C61.72235398 92.03482218 60.8226658 90.87982266 59.92578125 89.72265625 C54.72073562 83.06604742 49.34553839 76.54382283 44 70 C42.34607478 71.37827102 40.69922718 72.76578497 39.0859375 74.19140625 C37 76 37 76 34.7890625 77.65234375 C31.20420525 80.60952744 29.27410343 82.73411374 28.2734375 87.35546875 C27.98972071 91.26670735 27.94386695 95.07770325 28 99 C28 103.62 28 108.24 28 113 C18.76 113 9.52 113 0 113 C0 75.71 0 38.42 0 0 Z " fill="#0B3454" transform="translate(353,419)"/>
<path d="M0 0 C0.25583807 11.90066299 0.45080528 23.80066294 0.56993389 35.70352459 C0.62713658 41.23181055 0.70460747 46.75820371 0.82983398 52.28540039 C0.95011648 57.62834324 1.01528168 62.96947609 1.04364967 68.3136692 C1.06384135 70.34349861 1.10327285 72.37323838 1.16303062 74.40228844 C1.68167732 92.75714229 1.68167732 92.75714229 -5.27026367 100.49145508 C-7.13038559 102.38850141 -9.05679925 104.18504018 -11 106 C-12.64824857 107.87207435 -14.19294798 109.79921221 -15.75 111.75 C-16.82507813 113.06677734 -16.82507813 113.06677734 -17.921875 114.41015625 C-20.5654094 117.70463615 -23.1390508 121.04953242 -25.6875 124.41796875 C-26.120625 124.94003906 -26.55375 125.46210938 -27 126 C-27.33 126 -27.66 126 -28 126 C-28.25729511 112.03994953 -28.45036362 98.08026805 -28.56993389 84.11833096 C-28.62732553 77.63493521 -28.70515326 71.15313286 -28.82983398 64.6706543 C-28.94942587 58.41354309 -29.01513988 52.15796334 -29.04364967 45.89979744 C-29.06396339 43.51337631 -29.10363468 41.1270384 -29.16303062 38.74127007 C-29.61080633 20.00901346 -29.61080633 20.00901346 -25.63751221 15.05348206 C-22.78764251 13.2195748 -20.18877242 12.10958364 -17 11 C-15.45629979 10.01663108 -13.93630143 8.993358 -12.4609375 7.91015625 C-11.77902344 7.43642578 -11.09710938 6.96269531 -10.39453125 6.47460938 C-9.00910039 5.50587967 -7.6236845 4.53712856 -6.23828125 3.56835938 C-1.10103155 0 -1.10103155 0 0 0 Z " fill="#0A3454" transform="translate(340,67)"/>
<path d="M0 0 C0.32724883 8.70198837 0.57452594 17.40180003 0.72537041 26.10864162 C0.79784818 30.15385088 0.8957551 34.1947952 1.05615234 38.23754883 C2.25763463 69.325071 2.25763463 69.325071 -6.765625 79.3671875 C-8.56159726 81.17053182 -10.39026009 82.86841266 -12.3270874 84.51887512 C-14.76872889 86.6805995 -16.64132155 89.10366562 -18.625 91.6875 C-19.52992188 92.81865234 -19.52992188 92.81865234 -20.453125 93.97265625 C-21.85589133 95.81113031 -23.1326931 97.67601853 -24.375 99.625 C-25.179375 100.800625 -25.179375 100.800625 -26 102 C-26.66 102 -27.32 102 -28 102 C-28 73.29 -28 44.58 -28 15 C-2 0 -2 0 0 0 Z " fill="#CEA845" transform="translate(302,137)"/>
<path d="M0 0 C0.66 0 1.32 0 2 0 C7.3453048 12.65606531 10.46455382 25.51479827 13 39 C13.18030762 39.92901123 13.36061523 40.85802246 13.54638672 41.81518555 C14.07892757 45.55414969 14.1985325 49.24272316 14.23828125 53.01171875 C14.25290405 54.15436691 14.25290405 54.15436691 14.26782227 55.32009888 C14.57985203 85.99223508 14.57985203 85.99223508 10 101 C9.63160624 102.34827548 9.26573154 103.6972417 8.90234375 105.046875 C4.44905325 120.95203403 -2.59669669 135.46098459 -12 149 C-15.23726107 145.80568766 -18.22038089 142.60320996 -21 139 C-19.5643339 135.03379112 -17.62288363 131.74739538 -15.375 128.1875 C-4.71275169 110.28636694 -0.28502024 88.56032377 1 68 C-5.93 68 -12.86 68 -20 68 C-20 64.37 -20 60.74 -20 57 C-13.07 57 -6.14 57 1 57 C0.03243688 45.30128234 -1.57028204 34.54933898 -4.78125 23.26953125 C-4.98008789 22.55748535 -5.17892578 21.84543945 -5.38378906 21.11181641 C-5.79814198 19.69178758 -6.248912 18.28193364 -6.73339844 16.88427734 C-7.93021051 13.1329028 -8.2025445 11.43493767 -6.515625 7.8125 C-5.76796875 6.884375 -5.0203125 5.95625 -4.25 5 C-3.14398438 3.576875 -3.14398438 3.576875 -2.015625 2.125 C-1.35046875 1.42375 -0.6853125 0.7225 0 0 Z " fill="#0F3451" transform="translate(484,174)"/>
<path d="M0 0 C5.57476158 3.28891644 10.29874935 8.10912477 12.2578125 14.33203125 C13.09820998 22.26328243 12.93524479 29.62945369 8.2578125 36.33203125 C3.06888461 42.08401301 -1.71111805 44.9761052 -9.546875 45.66796875 C-18.05189582 45.85736018 -24.95261462 45.78027825 -31.44140625 39.75390625 C-37.78452154 32.93467334 -39.39505763 26.69030326 -39.15234375 17.48828125 C-38.23987118 10.4665876 -33.96727313 5.8487206 -28.54296875 1.5859375 C-19.84188721 -4.47273316 -9.46921229 -4.30833936 0 0 Z " fill="#113450" transform="translate(237.7421875,556.66796875)"/>
<path d="M0 0 C4.3228708 1.72914832 7.90366798 3.71684301 11.75 6.25 C12.31976563 6.61996094 12.88953125 6.98992187 13.4765625 7.37109375 C14.63919182 8.12809462 15.79220489 8.90009461 16.93452454 9.68740845 C18.98609017 11.05667984 18.98609017 11.05667984 21.30558777 12.05770874 C24.04151535 13.45547756 25.9242091 14.72026795 28 17 C29.26405495 21.69496354 29.05124684 26.32927935 28.87890625 31.1484375 C28.86210208 32.52987508 28.84929942 33.91136662 28.84031677 35.2928772 C28.80608891 38.91439121 28.71782084 42.53261203 28.61798096 46.15283203 C28.52560549 49.85272869 28.48424987 53.55317809 28.43945312 57.25390625 C28.34794389 64.50550435 28.17185643 71.74808285 28 79 C18.76 79 9.52 79 0 79 C0 52.93 0 26.86 0 0 Z " fill="#CBA84C" transform="translate(350,68)"/>
<path d="M0 0 C3.96 0 7.92 0 12 0 C12.2673999 0.81267334 12.5347998 1.62534668 12.81030273 2.46264648 C13.80123307 5.46946639 14.79483725 8.47538521 15.7902832 11.48071289 C16.22105089 12.78309049 16.65074225 14.08582458 17.0793457 15.38891602 C17.69461363 17.25890373 18.31404059 19.12752142 18.93359375 20.99609375 C19.4913147 22.68496704 19.4913147 22.68496704 20.06030273 24.40795898 C20.75540376 26.8966603 20.75540376 26.8966603 22 28 C22.2673999 27.18732666 22.5347998 26.37465332 22.81030273 25.53735352 C23.80123307 22.53053361 24.79483725 19.52461479 25.7902832 16.51928711 C26.22105089 15.21690951 26.65074225 13.91417542 27.0793457 12.61108398 C27.69461363 10.74109627 28.31404059 8.87247858 28.93359375 7.00390625 C29.30540771 5.87799072 29.67722168 4.7520752 30.06030273 3.59204102 C31 1 31 1 32 0 C35.63 0 39.26 0 43 0 C47.95 14.355 47.95 14.355 53 29 C55.50154801 22.33731485 55.50154801 22.33731485 57.82421875 15.625 C58.28344727 14.24248047 58.28344727 14.24248047 58.75195312 12.83203125 C59.06068359 11.89746094 59.36941406 10.96289062 59.6875 10 C60.00783203 9.03449219 60.32816406 8.06898438 60.65820312 7.07421875 C61.44018431 4.71660384 62.22028664 2.35836589 63 0 C66.63 0 70.26 0 74 0 C72.70075195 6.19164474 71.11428239 12.17078221 69.1796875 18.19140625 C68.91616486 19.02212143 68.65264221 19.85283661 68.38113403 20.70872498 C67.54938636 23.32782134 66.71229397 25.94517212 65.875 28.5625 C65.3056333 30.35210023 64.73661963 32.14181281 64.16796875 33.93164062 C62.78271929 38.28906859 61.39267816 42.64494092 60 47 C55.71 47 51.42 47 47 47 C45.71556138 43.04984155 44.43289914 39.09917547 43.15478516 35.14697266 C42.71931109 33.80223134 42.28279245 32.45782783 41.84521484 31.11376953 C41.21698473 29.18349334 40.59250246 27.25203954 39.96875 25.3203125 C39.40317383 23.57645264 39.40317383 23.57645264 38.82617188 21.79736328 C38 19 38 19 38 17 C37.34 17 36.68 17 36 17 C35.86078125 18.38058594 35.86078125 18.38058594 35.71875 19.7890625 C34.95040175 25.15938388 33.17423715 30.23125935 31.5 35.375 C31.17902344 36.38433594 30.85804687 37.39367187 30.52734375 38.43359375 C28.13778832 45.86221168 28.13778832 45.86221168 27 47 C24.98035801 47.07244053 22.95832876 47.08377188 20.9375 47.0625 C19.83277344 47.05347656 18.72804688 47.04445313 17.58984375 47.03515625 C16.73519531 47.02355469 15.88054687 47.01195312 15 47 C13.34195517 42.07579504 11.68808235 37.15021457 10.0378418 32.22338867 C9.47742639 30.55211828 8.91592862 28.88121038 8.35327148 27.21069336 C5.31785015 18.19616654 2.36899066 9.21828295 0 0 Z " fill="#133550" transform="translate(64,555)"/>
<path d="M0 0 C6.991875 -0.0928125 6.991875 -0.0928125 14.125 -0.1875 C15.58437988 -0.21481201 17.04375977 -0.24212402 18.54736328 -0.27026367 C19.70993652 -0.27775635 20.87250977 -0.28524902 22.0703125 -0.29296875 C23.25383301 -0.3086792 24.43735352 -0.32438965 25.65673828 -0.34057617 C30.19739354 0.1219778 33.53773075 1.62356626 36.86328125 4.75390625 C37.34152344 5.35074219 37.81976562 5.94757812 38.3125 6.5625 C39.04919922 7.46162109 39.04919922 7.46162109 39.80078125 8.37890625 C42.49996872 12.02764501 42.56135397 15.60913539 42 20 C40.3968118 24.6766578 38.41064346 28.47963231 34 31 C35.43308135 34.95906817 37.33141949 38.28718181 39.625 41.8125 C40.25664063 42.78832031 40.88828125 43.76414062 41.5390625 44.76953125 C42.26222656 45.87361328 42.26222656 45.87361328 43 47 C38.47203342 47.74545791 34.4931454 48.05202828 30 47 C27.4772421 44.0990433 25.83453217 41.10264855 23.98828125 37.73828125 C22.24454198 34.80866876 22.24454198 34.80866876 19.29296875 33.98046875 C16.21774564 33.66231765 16.21774564 33.66231765 12 34 C12 38.29 12 42.58 12 47 C8.04 47 4.08 47 0 47 C0 31.49 0 15.98 0 0 Z " fill="#173853" transform="translate(538,555)"/>
<path d="M0 0 C0.33 0 0.66 0 1 0 C1 27.72 1 55.44 1 84 C-4.62811791 78.37188209 -4.62811791 78.37188209 -7.12890625 75.13671875 C-7.68352539 74.42209473 -8.23814453 73.7074707 -8.80957031 72.97119141 C-9.38803711 72.21757324 -9.96650391 71.46395508 -10.5625 70.6875 C-11.16803711 69.90294434 -11.77357422 69.11838867 -12.39746094 68.31005859 C-14.27054708 65.87758705 -16.13657746 63.43988053 -18 61 C-18.88437744 59.84346924 -18.88437744 59.84346924 -19.78662109 58.66357422 C-21.44637116 56.48800033 -23.099821 54.30783978 -24.75 52.125 C-25.25088135 51.46588623 -25.7517627 50.80677246 -26.26782227 50.12768555 C-28.47472206 47.18860617 -30.53233889 44.39609956 -32 41 C-31.53851563 40.42894531 -31.07703125 39.85789063 -30.6015625 39.26953125 C-26.80678674 34.55231 -23.06099592 29.80277945 -19.375 25 C-15.06927824 19.39058462 -10.76161085 13.78276077 -6.4375 8.1875 C-5.8172998 7.37990234 -5.19709961 6.57230469 -4.55810547 5.74023438 C-3.9807666 4.99451172 -3.40342773 4.24878906 -2.80859375 3.48046875 C-2.29095459 2.80910889 -1.77331543 2.13774902 -1.23999023 1.44604492 C-0.83079346 0.9688501 -0.42159668 0.49165527 0 0 Z " fill="#CCA746" transform="translate(453,215)"/>
<path d="M0 0 C3.58175835 2.66936552 6.14657216 5.27217025 8.6875 8.9375 C11.56738153 13.00573413 14.50717703 16.99907704 17.5625 20.9375 C22.64965998 27.49936025 27.6136096 34.15136378 32.57861328 40.8059082 C36.5271239 46.08292285 40.54328266 51.26820563 44.77734375 56.3203125 C46 58 46 58 46 60 C28.74872429 58.23220143 12.71097215 52.11698062 -2 43 C-2.71929687 42.61255615 -3.43859375 42.2251123 -4.1796875 41.82592773 C-6.42628083 39.5724042 -6.51397026 37.9238599 -6.60708618 34.80828857 C-6.60435196 33.78170135 -6.60435196 33.78170135 -6.6015625 32.734375 C-6.61013275 32.02275208 -6.618703 31.31112915 -6.62753296 30.57794189 C-6.63901291 29.07169848 -6.64002465 27.5653442 -6.63134766 26.05908203 C-6.62505634 23.77049474 -6.67181311 21.48716014 -6.72265625 19.19921875 C-6.82432206 6.96912367 -6.82432206 6.96912367 -2.9609375 2.453125 C-1.98382813 1.64359375 -1.00671875 0.8340625 0 0 Z " fill="#CBA84A" transform="translate(280,305)"/>
<path d="M0 0 C4.29 0 8.58 0 13 0 C16.07617188 6.76757812 19.15234375 13.53515625 22.22851562 20.30273438 C22.56070099 21.03330048 22.89288635 21.76386658 23.23513794 22.51657104 C23.89657998 23.97223027 24.55729044 25.42822216 25.21725464 26.884552 C26.66283192 30.07251101 28.11879652 33.25354107 29.60400391 36.42333984 C30.28922119 37.8902124 30.28922119 37.8902124 30.98828125 39.38671875 C31.38184814 40.21776123 31.77541504 41.04880371 32.1809082 41.9050293 C33 44 33 44 33 47 C29.04 47 25.08 47 21 47 C19.68 44.03 18.36 41.06 17 38 C9.74 37.67 2.48 37.34 -5 37 C-5.99 40.3 -6.98 43.6 -8 47 C-11.96 47 -15.92 47 -20 47 C-18.00774197 40.73978566 -15.70320959 34.78705216 -12.98828125 28.80859375 C-12.61519333 27.97787857 -12.24210541 27.14716339 -11.85771179 26.29127502 C-10.68002296 23.671505 -9.49637698 21.05447851 -8.3125 18.4375 C-7.50676388 16.64796542 -6.70142165 14.85825342 -5.89648438 13.06835938 C-3.93553305 8.71017732 -1.96923914 4.35444311 0 0 Z " fill="#103350" transform="translate(409,555)"/>
<path d="M0 0 C12.21 0 24.42 0 37 0 C37 2.97 37 5.94 37 9 C28.75 9 20.5 9 12 9 C12 11.97 12 14.94 12 18 C19.26 18 26.52 18 34 18 C34 21.3 34 24.6 34 28 C26.74 28 19.48 28 12 28 C12 30.97 12 33.94 12 37 C20.58 37 29.16 37 38 37 C38 40.3 38 43.6 38 47 C25.46 47 12.92 47 0 47 C0 31.49 0 15.98 0 0 Z " fill="#1C3E59" transform="translate(491,555)"/>
<path d="M0 0 C12.21 0 24.42 0 37 0 C37 2.97 37 5.94 37 9 C28.75 9 20.5 9 12 9 C12 11.97 12 14.94 12 18 C19.26 18 26.52 18 34 18 C34 21.3 34 24.6 34 28 C26.74 28 19.48 28 12 28 C12 30.97 12 33.94 12 37 C20.58 37 29.16 37 38 37 C38 40.3 38 43.6 38 47 C25.46 47 12.92 47 0 47 C0 31.49 0 15.98 0 0 Z " fill="#1B3C57" transform="translate(302,555)"/>
<path d="M0 0 C3.63 0 7.26 0 11 0 C11 5.94 11 11.88 11 18 C17.93 18 24.86 18 32 18 C32 12.06 32 6.12 32 0 C35.63 0 39.26 0 43 0 C43 15.51 43 31.02 43 47 C39.37 47 35.74 47 32 47 C32 40.73 32 34.46 32 28 C25.4 28 18.8 28 12 28 C12 34.27 12 40.54 12 47 C8.04 47 4.08 47 0 47 C0 31.49 0 15.98 0 0 Z " fill="#133652" transform="translate(146,555)"/>
<path d="M0 0 C3.37462715 0.54723683 5.08235 1.0549 8 3 C8.41768403 5.59079325 8.63370323 7.93625297 8.71484375 10.54296875 C8.7585762 11.67708191 8.7585762 11.67708191 8.80319214 12.83410645 C8.87837197 15.28572907 8.91591811 17.7348359 8.9375 20.1875 C8.94502289 21.01633698 8.95254578 21.84517395 8.96029663 22.6991272 C8.97038133 41.09608827 8.97038133 41.09608827 2.8125 47.6875 C1.18212816 49.28963815 -0.48604784 50.81235678 -2.21533203 52.30712891 C-5.66996919 55.58407201 -8.3251233 59.54103077 -11.125 63.375 C-12.20514842 64.82464404 -13.29062866 66.27033938 -14.3828125 67.7109375 C-15.06947998 68.62818604 -15.06947998 68.62818604 -15.77001953 69.56396484 C-17 71 -17 71 -19 72 C-19.35967462 65.33460126 -19.60199185 58.67175553 -19.76904297 51.9987793 C-19.8387718 49.73741235 -19.93380541 47.47666051 -20.05615234 45.2175293 C-20.71680636 32.69008572 -20.8329116 23.07848161 -12.2578125 13.27734375 C-10.45439547 11.3550466 -8.6163313 9.49805916 -6.71099854 7.67697144 C-4.26121942 5.27591175 -2.1480353 2.67159008 0 0 Z " fill="#CEA846" transform="translate(408,149)"/>
<path d="M0 0 C21.85161152 4.41249371 44.63960974 16.66988813 60 33 C58.66667905 36.99996286 56.5042173 37.83782337 53 40 C56.16952847 43.26008643 59.39937989 46.22237877 63 49 C62.67 49.99 62.34 50.98 62 52 C58.59726968 50.54493492 56.57146139 48.69677232 54.0625 46 C40.03264046 31.74201266 22.73386247 21.7081953 4 15 C4.52207031 15.48726562 5.04414063 15.97453125 5.58203125 16.4765625 C16.21120057 26.71481666 24.61838986 38.26725128 32 51 C25.06087911 51 17.47769045 44.98610643 12 41 C9.51510953 38.49047181 7.51500314 36.04714241 5.54296875 33.12890625 C4.14088927 30.8986392 4.14088927 30.8986392 1.92797852 29.76806641 C0 28 0 28 -0.45410156 25.08911133 C-0.4331543 23.9317749 -0.41220703 22.77443848 -0.390625 21.58203125 C-0.37773437 20.32841797 -0.36484375 19.07480469 -0.3515625 17.78320312 C-0.31804687 16.47287109 -0.28453125 15.16253906 -0.25 13.8125 C-0.22993307 12.4772399 -0.21168262 11.14195117 -0.1953125 9.80664062 C-0.14809803 6.53703854 -0.08225184 3.26887808 0 0 Z " fill="#CBA748" transform="translate(389,91)"/>
<path d="M0 0 C4.72956775 2.36478388 6.62474294 5.09100309 9.70458984 9.29003906 C12.19875263 12.66806004 14.7551384 15.90036462 17.54296875 19.04296875 C24.15098904 26.67537062 28.81614249 32.92551825 28.25805664 43.37768555 C27.86966812 46.3543936 27.25079016 48.63558106 25.54296875 51.1171875 C23.12987013 52.87822594 20.77388187 53.87451734 18 55 C16.5464837 55.69551626 15.09760045 56.40076068 13.65234375 57.11328125 C1.61115508 63 1.61115508 63 0 63 C0 42.21 0 21.42 0 0 Z " fill="#CCA848" transform="translate(389,296)"/>
<path d="M0 0 C-0.99 2.97 -1.98 5.94 -3 9 C-4.299375 8.505 -5.59875 8.01 -6.9375 7.5 C-11.61640293 5.94036569 -16.08974031 5.24078314 -21 6 C-21.99 6.66 -22.98 7.32 -24 8 C-23.89386164 10.45224694 -23.89386164 10.45224694 -23 13 C-19.49411948 14.74353271 -15.94247229 15.47659003 -12.125 16.25 C-6.50739132 17.60071972 -2.77730235 19.61148368 1 24 C2.99019499 27.98038997 2.31719113 32.00877771 1 36.125 C-2.01381196 40.4573547 -6.03841576 43.39719408 -11.28857422 44.46582031 C-13.69227486 44.63388312 -16.02946105 44.64176109 -18.4375 44.5625 C-19.27063721 44.55025391 -20.10377441 44.53800781 -20.9621582 44.52539062 C-27.11201232 44.31804476 -31.67379868 43.21581966 -37 40 C-36.51421457 36.87709365 -36.0013988 34.00419641 -35 31 C-32.39361891 31.44680819 -30.13128467 31.94107872 -27.7109375 33.02734375 C-24.58548092 34.14872514 -22.12403044 34.23275073 -18.8125 34.1875 C-17.76707031 34.18105469 -16.72164063 34.17460938 -15.64453125 34.16796875 C-13.0230893 34.17388569 -13.0230893 34.17388569 -11 33 C-10.34444881 30.47266765 -10.34444881 30.47266765 -10 28 C-11.07378906 27.75765625 -12.14757812 27.5153125 -13.25390625 27.265625 C-14.6902409 26.92766391 -16.12643129 26.58908935 -17.5625 26.25 C-18.61920898 26.01410156 -18.61920898 26.01410156 -19.69726562 25.7734375 C-25.72686314 24.32855699 -32.04136969 22.05824984 -36 17 C-37.20643566 13.38069302 -37.32268559 10.80768995 -37 7 C-34.24764502 1.60114986 -30.55020891 -1.81659703 -24.75 -3.75 C-15.94461391 -4.55048964 -8.04764141 -4.0238207 0 0 Z " fill="#123450" transform="translate(384,558)"/>
<path d="M0 0 C-0.99 2.97 -1.98 5.94 -3 9 C-4.299375 8.505 -5.59875 8.01 -6.9375 7.5 C-11.61640293 5.94036569 -16.08974031 5.24078314 -21 6 C-21.99 6.66 -22.98 7.32 -24 8 C-23.67 9.65 -23.34 11.3 -23 13 C-21.84242188 13.31453125 -20.68484375 13.6290625 -19.4921875 13.953125 C-17.95296799 14.3848573 -16.41391412 14.8171804 -14.875 15.25 C-14.11445312 15.45496094 -13.35390625 15.65992188 -12.5703125 15.87109375 C-6.52403032 17.59115678 -1.61129198 19.58306203 2 25 C2.60321137 29.18331003 2.45950776 32.91169214 0.8125 36.8125 C-2.30753072 40.57805432 -5.16880199 43.06385676 -10 44 C-12.91363694 44.26053118 -15.82588005 44.2766652 -18.75 44.3125 C-19.5234375 44.34150391 -20.296875 44.37050781 -21.09375 44.40039062 C-26.70529761 44.46159039 -31.4454427 43.46120062 -36 40 C-37 37 -37 37 -35.5625 33.8125 C-35.046875 32.884375 -34.53125 31.95625 -34 31 C-32.783125 31.495 -31.56625 31.99 -30.3125 32.5 C-23.6393339 34.74914342 -15.72438002 35.24146001 -9 33 C-9.39066834 30.50650053 -9.39066834 30.50650053 -11 28 C-13.82110894 26.90191013 -16.33042528 26.11709849 -19.25 25.4375 C-26.1036212 23.77405678 -31.87081408 22.19377888 -36 16 C-36.66971441 10.96935454 -36.82838151 6.47267824 -34.3125 2 C-25.27194231 -5.8188607 -10.10913016 -6.7394201 0 0 Z " fill="#13344F" transform="translate(624,558)"/>
<path d="M0 0 C0.66 0 1.32 0 2 0 C2 22.77 2 45.54 2 69 C-3.62181226 63.37818774 -3.62181226 63.37818774 -5.76171875 60.46875 C-6.23641602 59.82905273 -6.71111328 59.18935547 -7.20019531 58.53027344 C-7.69100586 57.8602832 -8.18181641 57.19029297 -8.6875 56.5 C-11.7427807 52.35941634 -14.79377956 48.22560595 -18.00390625 44.203125 C-18.46772705 43.61853516 -18.93154785 43.03394531 -19.40942383 42.43164062 C-20.67819195 40.84007719 -21.95602016 39.25574861 -23.234375 37.671875 C-25 35 -25 35 -25 31 C-23.45929952 28.90798504 -21.92332583 27.04178626 -20.1875 25.125 C-19.1787675 23.9746009 -18.1723308 22.82218546 -17.16796875 21.66796875 C-16.64638184 21.07032715 -16.12479492 20.47268555 -15.58740234 19.85693359 C-12.96558346 16.78994583 -10.48063234 13.61900674 -8 10.4375 C-7.54391357 9.85436035 -7.08782715 9.2712207 -6.61791992 8.67041016 C-4.8023975 6.34184222 -3.00998461 4.0142142 -1.3125 1.59765625 C-0.6628125 0.80681641 -0.6628125 0.80681641 0 0 Z " fill="#0C3453" transform="translate(338,234)"/>
<path d="M0 0 C3.96 0 7.92 0 12 0 C12 12.21 12 24.42 12 37 C19.92 37 27.84 37 36 37 C36 40.3 36 43.6 36 47 C24.12 47 12.24 47 0 47 C0 31.49 0 15.98 0 0 Z " fill="#1C3D58" transform="translate(259,555)"/>
<path d="M0 0 C3.63 0 7.26 0 11 0 C11 12.21 11 24.42 11 37 C18.92 37 26.84 37 35 37 C35 40.3 35 43.6 35 47 C23.45 47 11.9 47 0 47 C0 31.49 0 15.98 0 0 Z " fill="#123551" transform="translate(449,555)"/>
<path d="M0 0 C3.74369364 2.22598 6.35686123 5.46372245 8.3125 9.375 C9.17360685 14.6288418 8.75042386 18.42889269 5.625 22.8125 C1.85892706 27.22819857 -0.807422 28.16273313 -6.5625 28.8125 C-11.3165168 28.66871121 -14.44372894 26.78181776 -17.6875 23.375 C-20.40073654 18.64871699 -21.37752318 14.79661068 -20.6875 9.375 C-16.06957451 0.31676154 -9.59125167 -2.23052364 0 0 Z " fill="#EBF1F6" transform="translate(230.6875,564.625)"/>
<path d="M0 0 C3.47132095 1.40929697 4.88093274 2.90605083 6.75 6.125 C7.17796875 6.84945313 7.6059375 7.57390625 8.046875 8.3203125 C8.36140625 8.87460937 8.6759375 9.42890625 9 10 C-0.81147439 18.82539656 -18.31133926 32 -32 32 C-33.82421875 30.1015625 -33.82421875 30.1015625 -35.6875 27.625 C-36.31011719 26.81289063 -36.93273437 26.00078125 -37.57421875 25.1640625 C-39 23 -39 23 -39 21 C-38.01902344 20.5875 -37.03804688 20.175 -36.02734375 19.75 C-23.35701436 14.35624964 -10.73833005 8.76598372 0 0 Z " fill="#0F3451" transform="translate(429,348)"/>
<path d="M0 0 C4.32779863 -0.36518229 6.5669531 0.60961432 10.1875 2.9375 C11.04730469 3.48277344 11.90710938 4.02804688 12.79296875 4.58984375 C13.52128906 5.05519531 14.24960937 5.52054688 15 6 C15.66 6.33 16.32 6.66 17 7 C17 7.99 17 8.98 17 10 C19.88085938 10.14648438 19.88085938 10.14648438 22.76171875 10.29296875 C26.24733827 11.39401087 27.72910213 13.15766704 30 16 C30.66995338 18.87505815 30.58508085 21.64304442 30.48828125 24.58203125 C30.48120651 25.39621017 30.47413177 26.2103891 30.46684265 27.04924011 C30.43895598 29.63794643 30.37623316 32.22445273 30.3125 34.8125 C30.2874095 36.57223428 30.26459764 38.33200263 30.24414062 40.09179688 C30.18914872 44.39537296 30.10291992 48.6973141 30 53 C29.34 53 28.68 53 28 53 C28 53.66 28 54.32 28 55 C27.34 55 26.68 55 26 55 C25.7525 55.78375 25.505 56.5675 25.25 57.375 C24 60 24 60 22 60.9375 C19.67201263 61.8934735 19.67201263 61.8934735 18.875 64.9375 C18.58625 65.948125 18.2975 66.95875 18 68 C17.34 68.99 16.68 69.98 16 71 C15.57654297 71.92232422 15.57654297 71.92232422 15.14453125 72.86328125 C13.65386337 75.64620047 11.77032165 77.81763402 9.6875 80.1875 C8.54861328 81.50814453 8.54861328 81.50814453 7.38671875 82.85546875 C5 85 5 85 0 86 C0 68.84 0 51.68 0 34 C1.485 33.505 1.485 33.505 3 33 C4.21869929 30.49552484 4.21869929 30.49552484 5 28 C5.66 28 6.32 28 7 28 C7.33 26.35 7.66 24.7 8 23 C8.99 23 9.98 23 11 23 C11.66 21.02 12.32 19.04 13 17 C13.66 17 14.32 17 15 17 C15.33 15.68 15.66 14.36 16 13 C14.39318359 13.01740234 14.39318359 13.01740234 12.75390625 13.03515625 C11.35677257 13.04453299 9.95963701 13.05363331 8.5625 13.0625 C7.85544922 13.07087891 7.14839844 13.07925781 6.41992188 13.08789062 C4.61306441 13.09653588 2.80612397 13.05220011 1 13 C0 12 0 12 -0.09765625 9.27734375 C-0.08605469 8.17519531 -0.07445312 7.07304687 -0.0625 5.9375 C-0.05347656 4.83277344 -0.04445313 3.72804687 -0.03515625 2.58984375 C-0.02355469 1.73519531 -0.01195312 0.88054687 0 0 Z M18.34375 14.4765625 C17.03972215 15.99608648 15.75831619 17.53516217 14.4934082 19.08740234 C12 22 12 22 9.1784668 24.6953125 C2.07294804 31.85302336 0.01831221 38.01718047 -0.07421875 48.0859375 C-0.04052546 52.52152829 0.12609972 56.94359718 0.3125 61.375 C0.36777909 63.67175685 0.41795109 65.96864258 0.46289062 68.265625 C0.58307166 73.84660109 0.76623453 79.42268655 1 85 C3.71905742 82.32115942 6.38548336 79.67715186 8.76171875 76.6875 C9.24189453 76.08550781 9.72207031 75.48351562 10.21679688 74.86328125 C10.94479492 73.94095703 10.94479492 73.94095703 11.6875 73 C12.38649414 72.12408203 12.38649414 72.12408203 13.09960938 71.23046875 C14.12521137 69.93997617 15.1356658 68.63735928 16.1340332 67.32568359 C18 65 18 65 20.59057617 62.25634766 C28.20131564 53.90389361 29.46449692 46.93928367 29.02905273 35.80322266 C28.93623733 33.34151061 28.92651564 30.88908054 28.92773438 28.42578125 C28.90320005 26.85408511 28.87407647 25.28245232 28.83984375 23.7109375 C28.83427963 22.97974701 28.82871552 22.24855652 28.82298279 21.49520874 C28.76970658 19.18948706 28.76970658 19.18948706 28 16 C24.9257597 13.42369333 21.76640885 11.42522984 18.34375 14.4765625 Z " fill="#F7EECF" transform="translate(388,136)"/>
<path d="M0 0 C0.06946766 8.94463131 0.12279465 17.88916996 0.15543652 26.83401203 C0.17110189 30.98733857 0.19235582 35.14048075 0.22631836 39.29370117 C0.2588811 43.30075585 0.27684645 47.30763304 0.28463173 51.3148098 C0.29018082 52.84466535 0.30101676 54.37451103 0.31719017 55.90429115 C0.33892415 58.04488855 0.34196872 60.18474973 0.34057617 62.32543945 C0.34723801 63.54455521 0.35389984 64.76367096 0.36076355 66.01972961 C0 69 0 69 -3 72 C-3 49.23 -3 26.46 -3 3 C-14.64870183 9.67608452 -14.64870183 9.67608452 -25 18 C-25.36908734 20.78638796 -25.49743168 23.16924779 -25.43823242 25.94970703 C-25.43669914 27.14545349 -25.43669914 27.14545349 -25.43513489 28.36535645 C-25.42725897 30.99664088 -25.39128079 33.62677268 -25.35546875 36.2578125 C-25.34546662 38.0857552 -25.33738026 39.91370931 -25.33113098 41.7416687 C-25.31019905 46.55140758 -25.26612394 51.36064934 -25.21636963 56.17016602 C-25.14108496 63.87562331 -25.10315174 71.58138073 -25.06087685 79.28707504 C-25.04313376 81.98274356 -25.017009 84.67822721 -24.98930359 87.37380981 C-24.97608906 89.01889978 -24.96296653 90.66399048 -24.94995117 92.30908203 C-24.93513199 93.43901077 -24.93513199 93.43901077 -24.92001343 94.59176636 C-24.88677736 99.77355471 -24.88677736 99.77355471 -26 102 C-26.66 102 -27.32 102 -28 102 C-28 73.29 -28 44.58 -28 15 C-2 0 -2 0 0 0 Z " fill="#C8B06E" transform="translate(302,137)"/>
<path d="M0 0 C12.24185013 -0.40357748 12.24185013 -0.40357748 17 3 C18 4 18 4 18.3125 7.3125 C18 11 18 11 16.43359375 13.21484375 C11.71002168 16.67980753 5.6117823 15.20784379 0 15 C0 10.05 0 5.1 0 0 Z " fill="#EEF5F8" transform="translate(550,564)"/>
<path d="M0 0 C-4.75791737 3.69468402 -9.94662393 6.6275505 -15.125 9.6875 C-16.13949219 10.29400391 -17.15398437 10.90050781 -18.19921875 11.52539062 C-19.16730469 12.09837891 -20.13539063 12.67136719 -21.1328125 13.26171875 C-22.01855957 13.78725342 -22.90430664 14.31278809 -23.81689453 14.85424805 C-26 16 -26 16 -28 16 C-28 44.38 -28 72.76 -28 102 C-30.91558479 99.08441521 -30.30302508 96.04912078 -30.30639648 92.14135742 C-30.31472 91.32979691 -30.32304352 90.51823639 -30.33161926 89.68208313 C-30.35578283 86.98983 -30.36449972 84.29781894 -30.37109375 81.60546875 C-30.38005635 79.73700384 -30.38917812 77.86853968 -30.39845276 76.00007629 C-30.41496335 72.07840224 -30.42264643 68.15681376 -30.42553711 64.23510742 C-30.43091833 59.21097837 -30.46857851 54.18765436 -30.51428127 49.16375256 C-30.54403481 45.30240449 -30.55126032 41.44125049 -30.55226326 37.57979774 C-30.55647017 35.72782014 -30.56892332 33.8758422 -30.58978081 32.02397728 C-30.61665614 29.43099371 -30.61188171 26.83987818 -30.59936523 24.24682617 C-30.61419952 23.4824826 -30.62903381 22.71813904 -30.64431763 21.93063354 C-30.58933003 17.92765528 -30.16093013 16.19771451 -27.60023499 13.05171204 C-25.24608246 11.19417105 -23.58629492 10.16230592 -20.75 9.3125 C-16.9443787 8.46915355 -16.9443787 8.46915355 -16 6 C-14.26452905 5.2468711 -12.52655472 4.498253 -10.76953125 3.796875 C-8.84092403 3.01544254 -8.84092403 3.01544254 -6.875 1.3125 C-4.47166038 -0.36983774 -2.86923803 -0.23910317 0 0 Z " fill="#F9F7E3" transform="translate(302,136)"/>
<path d="M0 0 C0.66 0 1.32 0 2 0 C2.01030746 1.27342255 2.02061493 2.54684509 2.03123474 3.8588562 C2.12882853 15.83722487 2.23154908 27.81553995 2.33933926 39.79382133 C2.39459416 45.95253556 2.44801826 52.1112545 2.49731445 58.27001953 C2.54492013 64.20928315 2.59726153 70.14848759 2.65294075 76.08768082 C2.67338154 78.35795755 2.69209171 80.62825052 2.70907402 82.89855576 C2.73307989 86.06898645 2.76313965 89.23930454 2.79467773 92.40966797 C2.8004332 93.35625275 2.80618866 94.30283752 2.81211853 95.27810669 C2.82680176 96.56959625 2.82680176 96.56959625 2.84178162 97.88717651 C2.84823417 98.637516 2.85468672 99.38785549 2.8613348 100.16093254 C2.8905552 102.09669295 2.8905552 102.09669295 4 104 C2.68 105.32 1.36 106.64 0 108 C0 72.36 0 36.72 0 0 Z " fill="#2B4357" transform="translate(312,85)"/>
<path d="M0 0 C3.37462715 0.54723683 5.08235 1.0549 8 3 C8.2667616 5.76628915 8.34804189 8.30619631 8.29296875 11.0703125 C8.28872391 11.86654022 8.28447906 12.66276794 8.28010559 13.48312378 C8.26328834 16.03075729 8.22563179 18.57760489 8.1875 21.125 C8.17245705 22.85024901 8.15876796 24.57551039 8.14648438 26.30078125 C8.11337501 30.53415782 8.06157285 34.76694559 8 39 C7.01 39.495 7.01 39.495 6 40 C5.67 28.12 5.34 16.24 5 4 C2.525 3.505 2.525 3.505 0 3 C-0.226875 3.53625 -0.45375 4.0725 -0.6875 4.625 C-4.11930948 10.83494096 -9.58100893 15.64273289 -14.61206055 20.54541016 C-17.94716709 24.60742964 -17.72949801 28.7019322 -17.70703125 33.7734375 C-17.72215256 34.6971817 -17.73727386 35.6209259 -17.75285339 36.57266235 C-17.79565103 39.50702476 -17.80456073 42.44035689 -17.8125 45.375 C-17.83565047 47.37112099 -17.86101695 49.36721759 -17.88867188 51.36328125 C-17.95144595 56.24227826 -17.98384316 61.12063493 -18 66 C-16.515 65.505 -16.515 65.505 -15 65 C-14.67 64.01 -14.34 63.02 -14 62 C-11.9375 61.3125 -11.9375 61.3125 -10 61 C-10.93018526 62.46300982 -11.86944027 63.92025579 -12.8125 65.375 C-13.33457031 66.18710938 -13.85664063 66.99921875 -14.39453125 67.8359375 C-16 70 -16 70 -19 72 C-19.35967462 65.33460126 -19.60199185 58.67175553 -19.76904297 51.9987793 C-19.8387718 49.73741235 -19.93380541 47.47666051 -20.05615234 45.2175293 C-20.71680636 32.69008572 -20.8329116 23.07848161 -12.2578125 13.27734375 C-10.45439547 11.3550466 -8.6163313 9.49805916 -6.71099854 7.67697144 C-4.26121942 5.27591175 -2.1480353 2.67159008 0 0 Z " fill="#C3A75C" transform="translate(408,149)"/>
<path d="M0 0 C0.33 0 0.66 0 1 0 C1 27.72 1 55.44 1 84 C-2.41153815 80.58846185 -5.36347733 77.43625763 -8.3125 73.6875 C-9.00988281 72.80449219 -9.70726562 71.92148437 -10.42578125 71.01171875 C-11.20501953 70.01591797 -11.20501953 70.01591797 -12 69 C-9 69 -9 69 -6 71 C-4.95191959 72.97522846 -3.9479589 74.97481509 -3 77 C-2.67 77.33 -2.34 77.66 -2 78 C-2 54.24 -2 30.48 -2 6 C-2.99 6 -3.98 6 -5 6 C-3.35830472 3.97945196 -1.69088222 1.97956942 0 0 Z " fill="#C3AC6C" transform="translate(453,215)"/>
<path d="M0 0 C0.33 0 0.66 0 1 0 C1.09257637 12.07381603 1.1637022 24.14754799 1.20724869 36.22164631 C1.22814617 41.82782313 1.25650345 47.4337576 1.30175781 53.03979492 C1.34513817 58.44736814 1.36912082 63.85470788 1.37950897 69.26244164 C1.38691438 71.32819483 1.40137496 73.39393489 1.42292023 75.459589 C1.45185025 78.34744767 1.45596035 81.2343348 1.45410156 84.12231445 C1.46848267 84.98114731 1.48286377 85.83998016 1.49768066 86.72483826 C1.45705348 92.53698116 1.45705348 92.53698116 -1.02838135 95.05485535 C-1.6790155 95.36675308 -2.32964966 95.67865082 -3 96 C-2.67 95.01 -2.34 94.02 -2 93 C-1.91865384 90.10402341 -1.89490596 87.23308884 -1.91821289 84.33764648 C-1.92127945 83.45284607 -1.92434601 82.56804565 -1.92750549 81.65643311 C-1.93466123 79.73465002 -1.94405159 77.81287427 -1.95540047 75.89111137 C-1.97275809 72.85327038 -1.98307899 69.81548172 -1.99131775 66.77760315 C-2.01580522 58.14017787 -2.05144143 49.50282331 -2.09594727 40.86547852 C-2.12266793 35.5841576 -2.13975065 30.30287734 -2.15081596 25.02150154 C-2.15704091 23.00518348 -2.16706491 20.98887355 -2.18089485 18.97259331 C-2.20002307 16.15932876 -2.20699458 13.3462796 -2.21118164 10.53295898 C-2.21994324 9.69394547 -2.22870483 8.85493195 -2.23773193 7.99049377 C-2.22789634 2.22789634 -2.22789634 2.22789634 0 0 Z " fill="#284154" transform="translate(339,67)"/>
<path d="M0 0 C1.9375 0.75 1.9375 0.75 4 2 C4.36162029 3.32594105 4.69728039 4.65938457 5 6 C5.99 6.33 6.98 6.66 8 7 C9.69140625 9.046875 9.69140625 9.046875 11.5625 11.75 C14.61877629 16.07925742 17.74830164 20.31781757 21 24.5 C24.24732602 28.70091085 27.4668545 32.91898179 30.625 37.1875 C31.27726562 38.06792969 31.92953125 38.94835937 32.6015625 39.85546875 C34 42 34 42 34 44 C34.99 44.33 35.98 44.66 37 45 C38.3726682 46.97321053 39.70427617 48.97543152 41 51 C41.5775 51.515625 42.155 52.03125 42.75 52.5625 C44.55078916 54.63340753 44.08624504 56.33934045 44 59 C32.91244837 58.53897914 21.83066994 56.26911865 12 51 C16.05965377 49.64678208 17.87795566 50.80408375 21.875 52.25 C28.83736043 54.70273695 35.76514207 56.4993465 43 58 C36.90888615 49.84711738 30.8028055 41.70891503 24.58056641 33.65551758 C21.1102929 29.1586389 17.70501156 24.61527396 14.30859375 20.0625 C12.6492593 17.86128476 10.97801128 15.6750767 9.28515625 13.5 C8.83140625 12.91605469 8.37765625 12.33210938 7.91015625 11.73046875 C7.03423829 10.60573931 6.155483 9.48321175 5.2734375 8.36328125 C3.18968729 5.68610056 1.36902664 3.11210428 0 0 Z " fill="#F9F3D6" transform="translate(283,307)"/>
<path d="M0 0 C0.66 0 1.32 0 2 0 C2 22.77 2 45.54 2 69 C-1 66 -1 66 -1.32279968 63.28547668 C-1.29837296 62.19071518 -1.27394623 61.09595367 -1.2487793 59.96801758 C-1.22853195 58.72695755 -1.20828461 57.48589752 -1.18742371 56.20722961 C-1.1500141 54.8529878 -1.11227126 53.49875515 -1.07421875 52.14453125 C-1.04618167 50.75878988 -1.01949168 49.37302066 -0.99409485 47.98722839 C-0.92367116 44.34214986 -0.83494925 40.69773738 -0.74243164 37.05316162 C-0.65123367 33.3331962 -0.57731734 29.61289204 -0.50195312 25.89257812 C-0.35156292 18.59461007 -0.18184339 11.29725926 0 4 C-0.66 3.67 -1.32 3.34 -2 3 C-1.34 2.01 -0.68 1.02 0 0 Z " fill="#2A4255" transform="translate(338,234)"/>
<path d="M0 0 C0.33 0 0.66 0 1 0 C1.06955626 9.04047403 1.12283974 18.08085573 1.15543652 27.12153912 C1.17108253 31.31964772 1.1923012 35.51757304 1.22631836 39.71557617 C1.25895002 43.76802684 1.27686102 47.82030138 1.28463173 51.87287331 C1.29016843 53.41782211 1.30098034 54.96276143 1.31719017 56.50763512 C1.33901566 58.67416477 1.34196488 60.83996963 1.34057617 63.0065918 C1.34723801 64.23903122 1.35389984 65.47147064 1.36076355 66.74125671 C0.80077372 71.79959228 -1.83957365 75.02906472 -5.0625 78.8125 C-5.56910156 79.41707031 -6.07570313 80.02164063 -6.59765625 80.64453125 C-8 82 -8 82 -10 82 C-10.268125 82.53625 -10.53625 83.0725 -10.8125 83.625 C-11.204375 84.40875 -11.59625 85.1925 -12 86 C-12.4125 86.969375 -12.825 87.93875 -13.25 88.9375 C-15.38192739 92.66837293 -17.59314742 94.42593361 -21 97 C-21.66 96.67 -22.32 96.34 -23 96 C-22.29875 95.17757812 -21.5975 94.35515625 -20.875 93.5078125 C-15.13598293 86.76122047 -9.45230046 79.98254516 -4 73 C-3.47975754 72.43625671 -2.95951508 71.87251343 -2.42350769 71.29168701 C-0.48428726 68.16976059 -0.60104894 65.87496367 -0.56762695 62.21191406 C-0.5574353 61.53833359 -0.54724365 60.86475311 -0.53674316 60.17076111 C-0.50663528 57.95229756 -0.49735107 55.73426594 -0.48828125 53.515625 C-0.47143284 51.97433032 -0.45328237 50.43304936 -0.43388367 48.89178467 C-0.38639476 44.84108774 -0.35657842 40.79044648 -0.33044434 36.73956299 C-0.30063309 32.60360726 -0.25410473 28.46784328 -0.20898438 24.33203125 C-0.12296394 16.2214484 -0.05561326 8.11084807 0 0 Z " fill="#FEFAE0" transform="translate(302,137)"/>
<path d="M0 0 C13.50926497 3.00205888 25.06292965 8.1960712 37 15 C34 16 34 16 30.91796875 14.5234375 C29.67074206 13.81382015 28.42747338 13.09721687 27.1875 12.375 C15.21626929 5.58870782 15.21626929 5.58870782 2 3 C1.67 6.3 1.34 9.6 1 13 C4.3 13.33 7.6 13.66 11 14 C11 14.66 11 15.32 11 16 C11.680625 16.0825 12.36125 16.165 13.0625 16.25 C16.8746907 17.22332528 19.64070329 18.95807455 23 21 C21 22 21 22 19.21240234 21.47094727 C18.51066895 21.17244873 17.80893555 20.8739502 17.0859375 20.56640625 C16.32539063 20.24736328 15.56484375 19.92832031 14.78125 19.59960938 C13.9871875 19.25736328 13.193125 18.91511719 12.375 18.5625 C11.57320313 18.22412109 10.77140625 17.88574219 9.9453125 17.53710938 C7.96060036 16.69833222 5.97991125 15.85004755 4 15 C5.65 16.98 7.3 18.96 9 21 C6 21 6 21 3.3125 18.5 C2.549375 17.675 1.78625 16.85 1 16 C1 19.63 1 23.26 1 27 C0.67 27 0.34 27 0 27 C0 18.09 0 9.18 0 0 Z " fill="#C3A960" transform="translate(389,91)"/>
<path d="M0 0 C9.24 0 18.48 0 28 0 C28 16.5 28 33 28 50 C27.34 49.67 26.68 49.34 26 49 C26 33.49 26 17.98 26 2 C17.75 2 9.5 2 1 2 C0.67 1.34 0.34 0.68 0 0 Z " fill="#153048" transform="translate(225,419)"/>
<path d="M0 0 C0.66 0 1.32 0 2 0 C2 19.14 2 38.28 2 58 C0.68 56.68 -0.64 55.36 -2 54 C-1.67 53.34 -1.34 52.68 -1 52 C-0.88112044 50.33600717 -0.82288056 48.66750725 -0.79467773 46.99951172 C-0.77473251 45.95858368 -0.75478729 44.91765564 -0.73423767 43.84518433 C-0.71752518 42.71807037 -0.70081268 41.59095642 -0.68359375 40.4296875 C-0.66281265 39.27832306 -0.64203156 38.12695862 -0.62062073 36.94070435 C-0.55508335 33.2521986 -0.49622072 29.56361997 -0.4375 25.875 C-0.39431877 23.37889862 -0.35070462 20.8828047 -0.30664062 18.38671875 C-0.19939769 12.25789019 -0.09763911 6.12898867 0 0 Z " fill="#0F2C46" transform="translate(376,295)"/>
<path d="M0 0 C2.17178485 2.73184398 3.77831257 5.37158133 5.1875 8.5625 C5.53167969 9.32691406 5.87585938 10.09132813 6.23046875 10.87890625 C7 13 7 13 7 16 C2.71 16 -1.58 16 -6 16 C-5.16583712 11.82918558 -4.21232487 8.96469139 -2.4375 5.1875 C-1.98246094 4.21167969 -1.52742188 3.23585938 -1.05859375 2.23046875 C-0.70925781 1.49441406 -0.35992187 0.75835938 0 0 Z " fill="#E2EDF3" transform="translate(415,567)"/>
<path d="M0 0 C0 5.65832921 -4.31290066 9.54084174 -8.13658142 13.38882446 C-8.90235252 14.14381729 -8.90235252 14.14381729 -9.68359375 14.9140625 C-10.22097672 15.45098724 -10.75835968 15.98791199 -11.31202698 16.54110718 C-12.44173066 17.66780826 -13.57384514 18.79209684 -14.70825195 19.9140625 C-16.43434726 21.62188064 -18.15228479 23.33758623 -19.86914062 25.0546875 C-20.97348769 26.15411879 -22.07829025 27.25309277 -23.18359375 28.3515625 C-23.94632851 29.11262802 -23.94632851 29.11262802 -24.72447205 29.8890686 C-27.67444624 32.80041549 -30.71772163 35.46974633 -34 38 C-34 35 -34 35 -31.62109375 32.36328125 C-30.5664332 31.3395758 -29.50478352 30.32303827 -28.4375 29.3125 C-27.31581796 28.22329753 -26.19601445 27.13215709 -25.078125 26.0390625 C-24.26891602 25.24870605 -24.26891602 25.24870605 -23.44335938 24.44238281 C-21.76336063 22.76352074 -20.21167101 21.00848326 -18.6875 19.1875 C-16.29187168 16.42032588 -13.82893481 13.76484348 -11.2421875 11.17578125 C-10.55809814 10.49040283 -9.87400879 9.80502441 -9.16918945 9.09887695 C-6.11881166 6.05981126 -3.06387203 3.02546283 0 0 Z " fill="#112F48" transform="translate(293,429)"/>
<path d="M0 0 C0.33 0 0.66 0 1 0 C1.33 15.51 1.66 31.02 2 47 C10.61073481 36.07610232 10.61073481 36.07610232 19 25 C19.33 25.66 19.66 26.32 20 27 C19.0685195 28.73448092 18.13088898 30.46778485 17.10546875 32.1484375 C15.97045558 33.97214459 15.97045558 33.97214459 15.1328125 35.90234375 C13.64156425 38.66372413 11.75789251 40.83177609 9.6875 43.1875 C8.92824219 44.06792969 8.16898437 44.94835937 7.38671875 45.85546875 C5 48 5 48 0 49 C0 32.83 0 16.66 0 0 Z " fill="#EEE5C7" transform="translate(388,173)"/>
<path d="M0 0 C0 3.65998231 -0.69240703 4.09168109 -3.125 6.6875 C-6.28366009 10.14790201 -9.10155974 13.72944135 -11.8359375 17.53125 C-12.41214844 18.25828125 -12.41214844 18.25828125 -13 19 C-13.33 19 -13.66 19 -14 19 C-14 13.06 -14 7.12 -14 1 C-12 3 -12 3 -12 6 C-8.04 4.02 -4.08 2.04 0 0 Z " fill="#BFA259" transform="translate(441,154)"/>
<path d="M0 0 C1.32 0.33 2.64 0.66 4 1 C3.39414062 1.78761719 2.78828125 2.57523438 2.1640625 3.38671875 C1.76421143 3.9065332 1.36436035 4.42634766 0.95239258 4.96191406 C0.05642785 6.12665173 -0.83956901 7.29136469 -1.7355957 8.45605469 C-4.03931235 11.45060534 -6.34257749 14.44550017 -8.64453125 17.44140625 C-13.41032237 23.64274222 -18.18837329 29.83410749 -23 36 C-23.61328125 34.16796875 -23.61328125 34.16796875 -24 32 C-22.21482174 29.35301155 -20.87978754 27.43989377 -18 26 C-17.67 25.01 -17.34 24.02 -17 23 C-16.34 23 -15.68 23 -15 23 C-14.71125 22.236875 -14.4225 21.47375 -14.125 20.6875 C-13 18 -13 18 -11 15 C-10.34 15 -9.68 15 -9 15 C-8.34 13.35 -7.68 11.7 -7 10 C-6.34 10 -5.68 10 -5 10 C-5 9.34 -5 8.68 -5 8 C-4.34 8 -3.68 8 -3 8 C-2.87625 7.4225 -2.7525 6.845 -2.625 6.25 C-1.99351176 3.97664233 -1.11141809 2.0746471 0 0 Z " fill="#F8F3DA" transform="translate(445,220)"/>
<path d="M0 0 C4.02316219 1.48536044 7.61292642 3.39876893 11.3125 5.5625 C12.38113281 6.18253906 13.44976562 6.80257812 14.55078125 7.44140625 C15.76314453 8.21291016 15.76314453 8.21291016 17 9 C17 9.33 17 9.66 17 10 C11.39 10 5.78 10 0 10 C0 6.7 0 3.4 0 0 Z " fill="#BDA15B" transform="translate(389,137)"/>
<path d="M0 0 C2.475 0.495 2.475 0.495 5 1 C5.33 1.66 5.66 2.32 6 3 C6.556875 2.855625 7.11375 2.71125 7.6875 2.5625 C10.11384195 1.97230872 12.54906345 1.476571 15 1 C12.44918171 3.97595467 9.56565563 5.44002566 6 7 C5.01 7 4.02 7 3 7 C2.67 6.01 2.34 5.02 2 4 C2 8.95 2 13.9 2 19 C4.97 15.04 7.94 11.08 11 7 C11.33 7.66 11.66 8.32 12 9 C11.14453125 11.05859375 11.14453125 11.05859375 9.8125 13.4375 C9.17248047 14.61119141 9.17248047 14.61119141 8.51953125 15.80859375 C6.88795774 18.16158279 5.44570116 19.52308144 3 21 C2.01 21 1.02 21 0 21 C0 14.07 0 7.14 0 0 Z " fill="#EDE4C7" transform="translate(426,153)"/>
<path d="M0 0 C3.76854223 1.25618074 4.07958456 2.66014706 6 6 C8.79120091 7.39560045 11.20205692 7.21808288 14.3203125 7.31640625 C15.57714844 7.35830078 16.83398438 7.40019531 18.12890625 7.44335938 C20.10697266 7.50233398 20.10697266 7.50233398 22.125 7.5625 C23.46485751 7.60569512 24.80470156 7.64930973 26.14453125 7.69335938 C29.42957815 7.79970981 32.71470281 7.90173808 36 8 C35.505 6.02 35.505 6.02 35 4 C36.7074998 5.28062485 38.37373596 6.61767557 40 8 C40 8.66 40 9.32 40 10 C35.42872198 10.19886761 30.8599965 10.34341878 26.28540039 10.43945312 C24.73221961 10.47950603 23.17933715 10.53397031 21.62719727 10.60351562 C8.7495997 11.16574781 8.7495997 11.16574781 4.37939453 8.25390625 C0 3.37246473 0 3.37246473 0 0 Z " fill="#0C2E4A" transform="translate(425,522)"/>
<path d="M0 0 C0.33 0.66 0.66 1.32 1 2 C-1.47783559 8.26746649 -5.80641745 12.85991946 -10.5625 17.5 C-12.57126791 19.56027478 -14.07500618 21.45976778 -15.6875 23.8125 C-16.450625 24.864375 -17.21375 25.91625 -18 27 C-18.66 27 -19.32 27 -20 27 C-22.22923777 31.32734391 -21.92470553 34.28400182 -21 39 C-22.65 37.35 -24.3 35.7 -26 34 C-22.2060021 27.97423862 -18.00801027 22.46114839 -13.453125 16.9921875 C-10.2730924 13.11335793 -7.22632192 9.14039642 -4.18652344 5.15136719 C-1.0855952 1.0855952 -1.0855952 1.0855952 0 0 Z " fill="#C3A75B" transform="translate(447,223)"/>
<path d="M0 0 C-0.66 0.66 -1.32 1.32 -2 2 C-2.99 2 -3.98 2 -5 2 C-7.92850149 4.76850499 -8.92180126 6.49789836 -9.54589844 10.50512695 C-9.5668457 11.81956787 -9.58779297 13.13400879 -9.609375 14.48828125 C-9.62591125 15.19147995 -9.64244751 15.89467865 -9.65948486 16.6191864 C-9.7078094 18.85038112 -9.7292991 21.0808952 -9.75 23.3125 C-9.77817302 24.83141417 -9.80810232 26.35029684 -9.83984375 27.86914062 C-9.91356111 31.57927971 -9.96323205 35.2892898 -10 39 C-10.66 39 -11.32 39 -12 39 C-12.04944066 34.35524041 -12.08573863 29.71063404 -12.10986328 25.06567383 C-12.11992041 23.48556856 -12.13356785 21.9054819 -12.15087891 20.32543945 C-12.17514022 18.0541525 -12.18648582 15.78311164 -12.1953125 13.51171875 C-12.20563507 12.80536789 -12.21595764 12.09901703 -12.22659302 11.3712616 C-12.22743775 7.67802208 -12.10720523 6.16080784 -10 3 C-9.34 3 -8.68 3 -8 3 C-8 2.01 -8 1.02 -8 0 C-5.13822943 -1.43088528 -3.06624227 -0.59991697 0 0 Z " fill="#F9F7E3" transform="translate(284,305)"/>
<path d="M0 0 C3.99375386 1.99687693 5.17988493 3.16522971 7.75 6.625 C8.67039062 7.85089844 8.67039062 7.85089844 9.609375 9.1015625 C10.29773438 10.04128906 10.29773438 10.04128906 11 11 C10.67 11.66 10.34 12.32 10 13 C9.50628906 12.3503125 9.01257813 11.700625 8.50390625 11.03125 C7.54291016 9.77828125 7.54291016 9.77828125 6.5625 8.5 C5.92441406 7.6646875 5.28632813 6.829375 4.62890625 5.96875 C4.09136719 5.3190625 3.55382812 4.669375 3 4 C2.67 4 2.34 4 2 4 C1.67 22.81 1.34 41.62 1 61 C1.66 61.33 2.32 61.66 3 62 C1.515 62.495 1.515 62.495 0 63 C0 42.21 0 21.42 0 0 Z " fill="#BA9F55" transform="translate(389,296)"/>
<path d="M0 0 C3.64875223 1.14023507 5.96709303 2.79183777 8.8125 5.25 C11.71663435 7.55952642 11.71663435 7.55952642 15.29296875 7.9453125 C17.75318952 7.35711722 17.75318952 7.35711722 21 6 C19.68 7.65 18.36 9.3 17 11 C21.95 14.96 21.95 14.96 27 19 C26.67 19.99 26.34 20.98 26 22 C22.59726968 20.54493492 20.57146139 18.69677232 18.0625 16 C13.75403787 11.56185172 9.12148048 7.85934928 4.16625977 4.1875 C2.76311614 3.14407784 1.37944371 2.07455893 0 1 C0 0.67 0 0.34 0 0 Z " fill="#C1A65D" transform="translate(425,121)"/>
<path d="M0 0 C5.94 0 11.88 0 18 0 C17.06601206 3.73595176 16.54745585 4.90059538 14.234375 7.71484375 C13.67363281 8.40126953 13.11289062 9.08769531 12.53515625 9.79492188 C11.94605469 10.50197266 11.35695313 11.20902344 10.75 11.9375 C10.17636719 12.64068359 9.60273438 13.34386719 9.01171875 14.06835938 C5.84466157 17.91716349 2.59473206 21.54716525 -1 25 C-0.67 23.68 -0.34 22.36 0 21 C0.66 21 1.32 21 2 21 C2.66 19.35 3.32 17.7 4 16 C4.66 16 5.32 16 6 16 C6.33 14.35 6.66 12.7 7 11 C7.99 11 8.98 11 10 11 C10.66 9.02 11.32 7.04 12 5 C12.66 5 13.32 5 14 5 C14.33 3.68 14.66 2.36 15 1 C10.05 1 5.1 1 0 1 C0 0.67 0 0.34 0 0 Z " fill="#F9F4DA" transform="translate(389,148)"/>
<path d="M0 0 C1.98 0 3.96 0 6 0 C6 0.66 6 1.32 6 2 C4.35 1.67 2.7 1.34 1 1 C1.02281132 5.56360551 1.10014171 10.12470953 1.1875 14.6875 C1.19330078 15.98107422 1.19910156 17.27464844 1.20507812 18.60742188 C1.23408203 19.85458984 1.26308594 21.10175781 1.29296875 22.38671875 C1.3086792 23.53358154 1.32438965 24.68044434 1.34057617 25.86206055 C2.18884968 29.89866159 3.92240158 31.3468175 7 34 C8.24351416 35.38306685 9.47418135 36.77786911 10.6875 38.1875 C12.41610338 40.19206667 14.1276298 42.1276298 16 44 C11.61338882 43.59194315 9.5531669 40.65499186 6.875 37.5 C3.85026135 33.75640858 3.85026135 33.75640858 0 31 C0 20.77 0 10.54 0 0 Z " fill="#F3EACA" transform="translate(388,90)"/>
<path d="M0 0 C10.89 0 21.78 0 33 0 C31.35 1.65 29.7 3.3 28 5 C28 4.34 28 3.68 28 3 C14.14 2.505 14.14 2.505 0 2 C0 1.34 0 0.68 0 0 Z " fill="#1C374D" transform="translate(302,419)"/>
<path d="M0 0 C0.33 0 0.66 0 1 0 C1 13.86 1 27.72 1 42 C2.485 41.505 2.485 41.505 4 41 C4.33 40.01 4.66 39.02 5 38 C7.0625 37.3125 7.0625 37.3125 9 37 C8.06981474 38.46300982 7.13055973 39.92025579 6.1875 41.375 C5.66542969 42.18710938 5.14335937 42.99921875 4.60546875 43.8359375 C3 46 3 46 0 48 C0 32.16 0 16.32 0 0 Z " fill="#BB9F55" transform="translate(389,173)"/>
<path d="M0 0 C6.20477864 1.93624298 12.10825719 4.25609141 18 7 C17.401875 7.144375 16.80375 7.28875 16.1875 7.4375 C14.43849596 7.8872439 12.71322977 8.42892341 11 9 C11.66 10.32 12.32 11.64 13 13 C13.66 13 14.32 13 15 13 C14.67 13.99 14.34 14.98 14 16 C11.66266774 13.52457687 9.33081816 11.0440564 7 8.5625 C6.33226562 7.85544922 5.66453125 7.14839844 4.9765625 6.41992188 C4.34492188 5.74638672 3.71328125 5.07285156 3.0625 4.37890625 C2.47597656 3.7557251 1.88945312 3.13254395 1.28515625 2.49047852 C0 1 0 1 0 0 Z " fill="#FAF4D5" transform="translate(392,105)"/>
<path d="M0 0 C1.5843317 0.08768248 3.16753567 0.19587329 4.75 0.3125 C6.07257813 0.39951172 6.07257813 0.39951172 7.421875 0.48828125 C10.36911494 1.07326372 11.68843591 2.13386915 14 4 C16.01241064 4.90222943 16.01241064 4.90222943 18.0625 5.5625 C20.80844465 6.49538331 22.51815092 7.34543395 25 9 C25 9.66 25 10.32 25 11 C25.78375 11.0825 26.5675 11.165 27.375 11.25 C30 12 30 12 31.1640625 14.046875 C31.57785156 15.01367188 31.57785156 15.01367188 32 16 C31.11441406 15.50371094 30.22882813 15.00742188 29.31640625 14.49609375 C19.80770964 9.25313834 10.10581208 4.95821281 0 1 C0 0.67 0 0.34 0 0 Z " fill="#F9F3D8" transform="translate(396,92)"/>
<path d="M0 0 C0.66 0.99 1.32 1.98 2 3 C1.50628906 3.48210937 1.01257813 3.96421875 0.50390625 4.4609375 C-0.45708984 5.40839844 -0.45708984 5.40839844 -1.4375 6.375 C-2.07558594 7.00148437 -2.71367187 7.62796875 -3.37109375 8.2734375 C-5.07882176 9.91723061 -5.07882176 9.91723061 -6 12 C-6.66 12 -7.32 12 -8 12 C-8.268125 12.53625 -8.53625 13.0725 -8.8125 13.625 C-9.204375 14.40875 -9.59625 15.1925 -10 16 C-10.4125 16.969375 -10.825 17.93875 -11.25 18.9375 C-13.38192739 22.66837293 -15.59314742 24.42593361 -19 27 C-19.66 26.67 -20.32 26.34 -21 26 C-20.29875 25.17757812 -19.5975 24.35515625 -18.875 23.5078125 C-8.9729956 12.11058673 -8.9729956 12.11058673 0 0 Z " fill="#F7F2D8" transform="translate(300,207)"/>
<path d="M0 0 C0.33 0 0.66 0 1 0 C1 9.57 1 19.14 1 29 C0.34 29 -0.32 29 -1 29 C-1.01458252 28.37432129 -1.02916504 27.74864258 -1.04418945 27.10400391 C-1.11852804 24.27703598 -1.21523234 21.45126792 -1.3125 18.625 C-1.33505859 17.64015625 -1.35761719 16.6553125 -1.38085938 15.640625 C-1.41630859 14.69960937 -1.45175781 13.75859375 -1.48828125 12.7890625 C-1.51446533 11.91975098 -1.54064941 11.05043945 -1.56762695 10.15478516 C-1.81345218 7.61399973 -1.81345218 7.61399973 -5 6 C-4.01 6 -3.02 6 -2 6 C-1.34 4.02 -0.68 2.04 0 0 Z " fill="#1E3749" transform="translate(263,154)"/>
<path d="M0 0 C-4.76825997 3.69647604 -9.9482185 6.66779335 -15.125 9.75 C-16.13949219 10.36488281 -17.15398437 10.97976562 -18.19921875 11.61328125 C-19.16730469 12.18949219 -20.13539063 12.76570312 -21.1328125 13.359375 C-22.01855957 13.89014648 -22.90430664 14.42091797 -23.81689453 14.96777344 C-24.53731934 15.3084082 -25.25774414 15.64904297 -26 16 C-26.66 15.67 -27.32 15.34 -28 15 C-28 14.34 -28 13.68 -28 13 C-24.27721813 10.78064927 -21.22634608 8.97531063 -17 8 C-16.67 7.34 -16.34 6.68 -16 6 C-14.26452905 5.2468711 -12.52655472 4.498253 -10.76953125 3.796875 C-8.84092403 3.01544254 -8.84092403 3.01544254 -6.875 1.3125 C-4.47166038 -0.36983774 -2.86923803 -0.23910317 0 0 Z " fill="#F7F1D7" transform="translate(302,136)"/>
<path d="M0 0 C4.98012761 1.50912958 8.24259942 4.55661849 12 8 C11.22892491 12.23648152 9.37491456 13.40391188 6 16 C6 16.66 6 17.32 6 18 C7.32 18.66 8.64 19.32 10 20 C9.67 20.99 9.34 21.98 9 23 C6.69 21.02 4.38 19.04 2 17 C6.75 12.125 6.75 12.125 9 11 C7.62011743 7.78724312 6.09467624 5.9893602 3.375 3.8125 C2.23489161 2.89343303 1.10537887 1.96055651 0 1 C0 0.67 0 0.34 0 0 Z " fill="#FCF6DC" transform="translate(439,115)"/>
<path d="M0 0 C0.66 0 1.32 0 2 0 C2 8.91 2 17.82 2 27 C1.34 27 0.68 27 0 27 C-0.98753178 17.85393643 -0.89191731 9.15244374 0 0 Z " fill="#32495B" transform="translate(300,91)"/>
<path d="M0 0 C0.99 0 1.98 0 3 0 C3.33 1.65 3.66 3.3 4 5 C4.99 5.33 5.98 5.66 7 6 C11 11.37142857 11 11.37142857 11 14 C11.66 14 12.32 14 13 14 C13.103125 14.639375 13.20625 15.27875 13.3125 15.9375 C13.539375 16.618125 13.76625 17.29875 14 18 C14.99 18.33 15.98 18.66 17 19 C18.1875 22.0625 18.1875 22.0625 19 25 C14.38936292 20.65383541 10.56380964 15.81457619 6.6875 10.8125 C6.04232422 9.99330078 5.39714844 9.17410156 4.73242188 8.33007812 C4.12333984 7.54697266 3.51425781 6.76386719 2.88671875 5.95703125 C2.33201904 5.24522705 1.77731934 4.53342285 1.20581055 3.80004883 C0 2 0 2 0 0 Z " fill="#F8F2D6" transform="translate(394,299)"/>
<path d="M0 0 C0.99 0 1.98 0 3 0 C4.9375 2.51953125 4.9375 2.51953125 7 5.8125 C9.54527728 9.98094865 9.54527728 9.98094865 12.70703125 13.65625 C14.93379333 15.97046799 14.7098152 18.92404116 15 22 C12.19678424 20.59839212 11.72218797 18.78075435 10.3125 16 C7.73835581 11.13137173 4.81245856 6.92770933 1.3203125 2.6796875 C0 1 0 1 0 0 Z " fill="#F9F2D2" transform="translate(407,122)"/>
<path d="M0 0 C4.42839572 4.1865436 8.11265185 8.79086173 11.8125 13.625 C12.7087207 14.7696875 12.7087207 14.7696875 13.62304688 15.9375 C14.18701172 16.67226563 14.75097656 17.40703125 15.33203125 18.1640625 C16.10123901 19.16107178 16.10123901 19.16107178 16.88598633 20.17822266 C18 22 18 22 18 25 C17.34 24.67 16.68 24.34 16 24 C16 23.34 16 22.68 16 22 C15.34 22 14.68 22 14 22 C13.44828125 20.98550781 12.8965625 19.97101563 12.328125 18.92578125 C10.1229284 15.06474259 7.52865609 11.64870387 4.75 8.1875 C0 2.27001404 0 2.27001404 0 0 Z " fill="#C3A960" transform="translate(304,336)"/>
<path d="M0 0 C7.3498184 6.66077293 12.92521165 15.00150907 17 24 C14.08482708 22.92598892 12.22189824 22.22189824 10 20 C10.66 19.67 11.32 19.34 12 19 C10.75296895 17.10221245 9.50223942 15.20685489 8.25 13.3125 C7.55390625 12.25675781 6.8578125 11.20101562 6.140625 10.11328125 C4.06082938 6.99598138 4.06082938 6.99598138 1.734375 4.23046875 C0 2 0 2 0 0 Z " fill="#BFA867" transform="translate(404,119)"/>
<path d="M0 0 C3.92962867 3.71797901 7.08640793 7.63840042 10.1875 12.0625 C10.62513672 12.67416016 11.06277344 13.28582031 11.51367188 13.91601562 C13.58829277 16.84582375 15.53390779 19.71562583 17 23 C13.69713914 21.89904638 13.21489099 21.3103981 11.3125 18.5625 C10.87550781 17.94503906 10.43851562 17.32757813 9.98828125 16.69140625 C9 15 9 15 9 13 C8.34 13 7.68 13 7 13 C7 12.01 7 11.02 7 10 C6.01 9.67 5.02 9.34 4 9 C0 3.74285714 0 3.74285714 0 0 Z " fill="#F9F2D4" transform="translate(421,257)"/>
<path d="M0 0 C0.33 0.99 0.66 1.98 1 3 C-2.1020505 8.66461395 -6.66069741 13.26047047 -11 18 C-11.66 17.34 -12.32 16.68 -13 16 C-12.14535156 15.01257813 -11.29070312 14.02515625 -10.41015625 13.0078125 C-9.2941626 11.71363499 -8.17828309 10.41935905 -7.0625 9.125 C-6.49853516 8.47402344 -5.93457031 7.82304687 -5.35351562 7.15234375 C-4.54624023 6.21455078 -4.54624023 6.21455078 -3.72265625 5.2578125 C-3.22515869 4.6817627 -2.72766113 4.10571289 -2.21508789 3.51220703 C-0.91115852 1.9986699 -0.91115852 1.9986699 0 0 Z " fill="#19354D" transform="translate(365,201)"/>
<path d="M0 0 C-1.65863505 4.32504836 -4.871041 7.09418825 -8.125 10.25 C-8.68832031 10.80429688 -9.25164062 11.35859375 -9.83203125 11.9296875 C-11.21686028 13.29104485 -12.60783204 14.64614859 -14 16 C-14.66 15.67 -15.32 15.34 -16 15 C-2.63106796 0 -2.63106796 0 0 0 Z " fill="#0E2D44" transform="translate(300,106)"/>
<path d="M0 0 C3.25516428 3.16474305 6.32008793 6.32752791 9 10 C9 10.66 9 11.32 9 12 C7.5629191 12.05422947 6.12524538 12.09289723 4.6875 12.125 C3.88699219 12.14820313 3.08648437 12.17140625 2.26171875 12.1953125 C0 12 0 12 -3 10 C0.465 9.505 0.465 9.505 4 9 C3.71125 8.443125 3.4225 7.88625 3.125 7.3125 C1.9586747 4.91505355 0.9660119 2.48403061 0 0 Z " fill="#263F55" transform="translate(336,378)"/>
<path d="M0 0 C0.66 0 1.32 0 2 0 C2 0.66 2 1.32 2 2 C2.66 2 3.32 2 4 2 C4.86625 3.5778125 4.86625 3.5778125 5.75 5.1875 C8.28965075 9.6296453 11.28598283 13.47168369 15 17 C14.67 17.99 14.34 18.98 14 20 C12.22861556 17.75043199 10.45787453 15.50036258 8.6875 13.25 C7.93823242 12.29867188 7.93823242 12.29867188 7.17382812 11.328125 C6.20683217 10.09856722 5.24175574 8.86749686 4.27880859 7.63476562 C3.24112229 6.3082388 2.19420368 4.98893767 1.14453125 3.671875 C0 2 0 2 0 0 Z " fill="#C0A65F" transform="translate(426,262)"/>
<path d="M0 0 C4 3 8 6 12 9 C11.67 9.99 11.34 10.98 11 12 C7.86989542 10.60807296 5.67663308 8.97357774 3.25 6.5625 C2.63640625 5.96566406 2.0228125 5.36882812 1.390625 4.75390625 C0 3 0 3 0 0 Z " fill="#C1AE79" transform="translate(440,131)"/>
<path d="M0 0 C0.99 0.33 1.98 0.66 3 1 C3 1.66 3 2.32 3 3 C-7.89 3 -18.78 3 -30 3 C-30 2.67 -30 2.34 -30 2 C-20.1 2 -10.2 2 0 2 C0 1.34 0 0.68 0 0 Z " fill="#284257" transform="translate(462,529)"/>
<path d="M0 0 C3.84725418 3.68088643 7.11385725 7.56185919 10.3125 11.8125 C10.76689453 12.40998047 11.22128906 13.00746094 11.68945312 13.62304688 C12.79633917 15.07947588 13.89865264 16.53937817 15 18 C14.01 18 13.02 18 12 18 C7 12.65116279 7 12.65116279 7 10 C6.01 9.67 5.02 9.34 4 9 C2.00603743 6.33916031 0 3.38757675 0 0 Z " fill="#F9F4D7" transform="translate(438,280)"/>
<path d="M0 0 C0.33 0.99 0.66 1.98 1 3 C0.37351562 3.45890625 -0.25296875 3.9178125 -0.8984375 4.390625 C-1.71570313 5.00421875 -2.53296875 5.6178125 -3.375 6.25 C-4.18710937 6.85328125 -4.99921875 7.4565625 -5.8359375 8.078125 C-7.96826778 9.97181904 -8.94636704 11.38328518 -10 14 C-10.625 10.9375 -10.625 10.9375 -10 7 C-6.93610144 4.21561499 -3.56272105 2.09309861 0 0 Z " fill="#1A3751" transform="translate(324,77)"/>
<path d="M0 0 C0.66 0.33 1.32 0.66 2 1 C1.09636719 1.83144531 0.19273437 2.66289062 -0.73828125 3.51953125 C-1.92971816 4.61715423 -3.12112271 5.71481232 -4.3125 6.8125 C-5.20485352 7.63331055 -5.20485352 7.63331055 -6.11523438 8.47070312 C-6.69208984 9.00244141 -7.26894531 9.53417969 -7.86328125 10.08203125 C-8.65665894 10.81256714 -8.65665894 10.81256714 -9.46606445 11.55786133 C-11.0092835 13.00872793 -12.51015856 14.49453768 -14 16 C-14.66 15.67 -15.32 15.34 -16 15 C-13.71240451 12.68344197 -11.41925113 10.37246517 -9.125 8.0625 C-8.47402344 7.40314453 -7.82304687 6.74378906 -7.15234375 6.06445312 C-6.52714844 5.43603516 -5.90195312 4.80761719 -5.2578125 4.16015625 C-4.6817627 3.57886963 -4.10571289 2.99758301 -3.51220703 2.39868164 C-2 1 -2 1 0 0 Z " fill="#102D46" transform="translate(421,430)"/>
<path d="M0 0 C0.99 0.33 1.98 0.66 3 1 C-3.435 6.94 -3.435 6.94 -10 13 C-10 10 -10 10 -7.8125 7.51953125 C-6.884375 6.62621094 -5.95625 5.73289062 -5 4.8125 C-4.071875 3.91144531 -3.14375 3.01039063 -2.1875 2.08203125 C-1.1046875 1.05142578 -1.1046875 1.05142578 0 0 Z " fill="#0E2C45" transform="translate(396,455)"/>
<path d="M0 0 C2.97 0 5.94 0 9 0 C9.33 0.99 9.66 1.98 10 3 C12.64 3.33 15.28 3.66 18 4 C18 4.66 18 5.32 18 6 C11.58008874 5.42934122 5.98410537 3.32655091 0 1 C0 0.67 0 0.34 0 0 Z " fill="#C9B16D" transform="translate(295,356)"/>
<path d="M0 0 C4.87072783 4.56630734 8.89156398 9.74976539 13 15 C12.67 15.66 12.34 16.32 12 17 C10.79557292 15.50260417 9.59114583 14.00520833 8.38671875 12.5078125 C6.87729455 10.74707893 6.87729455 10.74707893 4 9 C0 3.3277592 0 3.3277592 0 0 Z " fill="#C2A962" transform="translate(288,315)"/>
<path d="M0 0 C0.33 0.66 0.66 1.32 1 2 C0.14453125 4.05859375 0.14453125 4.05859375 -1.1875 6.4375 C-1.82751953 7.61119141 -1.82751953 7.61119141 -2.48046875 8.80859375 C-4.08188172 11.11808649 -5.6741412 12.45108761 -8 14 C-8.66 13.67 -9.32 13.34 -10 13 C-5.05 6.565 -5.05 6.565 0 0 Z " fill="#F4F1DF" transform="translate(437,160)"/>
<path d="M0 0 C2.475 0.495 2.475 0.495 5 1 C4.01 1.66 3.02 2.32 2 3 C1.49039309 5.51385259 1.49039309 5.51385259 1.48828125 8.4453125 C1.45283203 9.52167969 1.41738281 10.59804687 1.38085938 11.70703125 C1.35830078 12.83496094 1.33574219 13.96289062 1.3125 15.125 C1.26125977 16.82849609 1.26125977 16.82849609 1.20898438 18.56640625 C1.12630498 21.37750579 1.05722063 24.18828553 1 27 C0.67 27 0.34 27 0 27 C0 18.09 0 9.18 0 0 Z " fill="#BA9E55" transform="translate(389,91)"/>
<path d="M0 0 C1.65 0 3.3 0 5 0 C5 0.66 5 1.32 5 2 C5.99 2.33 6.98 2.66 8 3 C8 3.66 8 4.32 8 5 C5.36 5 2.72 5 0 5 C0 3.35 0 1.7 0 0 Z " fill="#CAA142" transform="translate(390,141)"/>
<path d="M0 0 C0.66 1.32 1.32 2.64 2 4 C4.97 4 7.94 4 11 4 C11.33 3.34 11.66 2.68 12 2 C12.33 3.32 12.66 4.64 13 6 C9.04 6 5.08 6 1 6 C0.67 4.02 0.34 2.04 0 0 Z " fill="#273D51" transform="translate(429,596)"/>
<path d="M0 0 C2.56220131 3.84330196 1.91906612 5.23190677 1.125 9.6875 C0.92132813 10.86699219 0.71765625 12.04648438 0.5078125 13.26171875 C0.34023437 14.16535156 0.17265625 15.06898438 0 16 C-0.99 16.33 -1.98 16.66 -3 17 C-2.68985608 14.91631462 -2.3767948 12.83306332 -2.0625 10.75 C-1.88847656 9.58984375 -1.71445313 8.4296875 -1.53515625 7.234375 C-1.1272264 4.76893039 -0.66098697 2.40575438 0 0 Z " fill="#244157" transform="translate(197,194)"/>
<path d="M0 0 C0.66 0.33 1.32 0.66 2 1 C-0.97 4.63 -3.94 8.26 -7 12 C-7.33 11.34 -7.66 10.68 -8 10 C-5.87918396 5.67981918 -4.20335178 2.55203501 0 0 Z " fill="#C5AA60" transform="translate(407,196)"/>
<path d="M0 0 C0.99 0.33 1.98 0.66 3 1 C2.07347299 2.17539996 1.13336613 3.34010577 0.1875 4.5 C-0.33457031 5.1496875 -0.85664063 5.799375 -1.39453125 6.46875 C-3 8 -3 8 -6 8 C-4.55746343 4.63408134 -2.66735273 2.48952921 0 0 Z " fill="#2A475E" transform="translate(295,457)"/>
<path d="M0 0 C0.33 0.66 0.66 1.32 1 2 C2.98 1.67 4.96 1.34 7 1 C3.81404865 3.63978826 0.69029454 6.10498388 -3 8 C-3.66 7.67 -4.32 7.34 -5 7 C-3.35 4.69 -1.7 2.38 0 0 Z " fill="#1B2F43" transform="translate(274,135)"/>
<path d="M0 0 C3.69876091 1.37287342 6.9514476 3.06355453 10.3125 5.125 C11.19550781 5.66382813 12.07851563 6.20265625 12.98828125 6.7578125 C13.65214844 7.16773438 14.31601562 7.57765625 15 8 C14.01 8.495 14.01 8.495 13 9 C8.48996454 7.00719364 4.2615341 4.47168978 0 2 C0 1.34 0 0.68 0 0 Z " fill="#F9F2D5" transform="translate(404,134)"/>
<path d="M0 0 C0.66 0 1.32 0 2 0 C2 3.96 2 7.92 2 12 C0.68 10.68 -0.64 9.36 -2 8 C-1.9355877 5.05850486 -0.94310882 2.82932647 0 0 Z " fill="#0F263D" transform="translate(376,341)"/>
<path d="M0 0 C3.54968444 1.41987378 4.43253707 2.58846304 6 6 C7.60917381 8.37544706 9.29944627 10.68932394 11 13 C10.67 13.66 10.34 14.32 10 15 C8.32742872 12.87941855 6.66184582 10.75395924 5 8.625 C4.28457031 7.72007812 4.28457031 7.72007812 3.5546875 6.796875 C0 2.2265625 0 2.2265625 0 0 Z " fill="#163046" transform="translate(294,303)"/>
<path d="M0 0 C0.33 1.32 0.66 2.64 1 4 C-2.96 4 -6.92 4 -11 4 C-10.67 3.01 -10.34 2.02 -10 1 C-6.7 1.33 -3.4 1.66 0 2 C0 1.34 0 0.68 0 0 Z " fill="#2C4255" transform="translate(400,598)"/>
<path d="M0 0 C0 3.49889647 -0.54120332 4.0553603 -2.75 6.625 C-3.26046875 7.23601562 -3.7709375 7.84703125 -4.296875 8.4765625 C-6.19607419 10.17538747 -7.51275949 10.5998787 -10 11 C-6.79239749 7.19364503 -3.59253891 3.45436433 0 0 Z " fill="#223C52" transform="translate(429,420)"/>
<path d="M0 0 C0 3.566745 -0.63691955 4.10543677 -2.9375 6.6875 C-3.48277344 7.31011719 -4.02804687 7.93273437 -4.58984375 8.57421875 C-5.05519531 9.04472656 -5.52054687 9.51523438 -6 10 C-6.33 10 -6.66 10 -7 10 C-7 8.02 -7 6.04 -7 4 C-4.69 2.68 -2.38 1.36 0 0 Z " fill="#C0A971" transform="translate(441,154)"/>
<path d="M0 0 C4.78209804 1.44912062 8.70482037 4.2679954 12 8 C12 8.99 12 9.98 12 11 C11.34 11 10.68 11 10 11 C8.6328125 9.609375 8.6328125 9.609375 7.125 7.75 C4.8672966 5.02194172 2.555936 2.45763077 0 0 Z " fill="#F5EED0" transform="translate(439,115)"/>
<path d="M0 0 C-2.31 2.31 -4.62 4.62 -7 7 C-7.66 6.67 -8.32 6.34 -9 6 C-8.3125 3.625 -8.3125 3.625 -7 1 C-2.71428571 -1.35714286 -2.71428571 -1.35714286 0 0 Z " fill="#CBDCE4" transform="translate(299,106)"/>
<path d="M0 0 C0.33 0.66 0.66 1.32 1 2 C-1.7479213 6.27454425 -4.69250989 10.14126153 -8 14 C-8.66 13.67 -9.32 13.34 -10 13 C-5.05 6.565 -5.05 6.565 0 0 Z " fill="#F8F2D3" transform="translate(407,198)"/>
<path d="M0 0 C4.94515667 2.62711448 8.87775489 6.26645294 13 10 C12.01 10.495 12.01 10.495 11 11 C9.16086305 9.5489926 7.3288247 8.08898341 5.5 6.625 C4.4790625 5.81289062 3.458125 5.00078125 2.40625 4.1640625 C1.6121875 3.44992188 0.818125 2.73578125 0 2 C0 1.34 0 0.68 0 0 Z " fill="#FAF3D4" transform="translate(429,125)"/>
<path d="M0 0 C9.05529954 -0.62211982 9.05529954 -0.62211982 12.5625 1.6875 C14.10951881 4.17618244 14.67788008 6.10092075 15 9 C12.66475218 6.74259377 10.81294927 4.7194239 9 2 C6.80545319 1.42006301 6.80545319 1.42006301 4.375 1.3125 C3.55773437 1.24675781 2.74046875 1.18101562 1.8984375 1.11328125 C1.27195312 1.07589844 0.64546875 1.03851562 0 1 C0 0.67 0 0.34 0 0 Z " fill="#122A40" transform="translate(550,587)"/>
<path d="M0 0 C0.99 0.33 1.98 0.66 3 1 C2.07347299 2.17539996 1.13336613 3.34010577 0.1875 4.5 C-0.33457031 5.1496875 -0.85664063 5.799375 -1.39453125 6.46875 C-3 8 -3 8 -6 8 C-4.02 5.36 -2.04 2.72 0 0 Z " fill="#153248" transform="translate(340,175)"/>
<path d="M0 0 C0.66 0.33 1.32 0.66 2 1 C-0.64 4.3 -3.28 7.6 -6 11 C-6.33 9.68 -6.66 8.36 -7 7 C-6.360625 6.7525 -5.72125 6.505 -5.0625 6.25 C-2.80939427 5.19851273 -2.80939427 5.19851273 -2.375 2.9375 C-2.189375 1.9784375 -2.189375 1.9784375 -2 1 C-1.34 0.67 -0.68 0.34 0 0 Z " fill="#C5AB61" transform="translate(297,209)"/>
<path d="M0 0 C2.475 0.495 2.475 0.495 5 1 C4.67 2.65 4.34 4.3 4 6 C2.68 6 1.36 6 0 6 C0 4.02 0 2.04 0 0 Z " fill="#CDA544" transform="translate(428,160)"/>
<path d="M0 0 C3.72390287 2.36975637 7.09634199 4.64962537 10 8 C10 8.66 10 9.32 10 10 C9.34 10 8.68 10 8 10 C7.54625 9.38125 7.0925 8.7625 6.625 8.125 C5.16564614 5.87891304 5.16564614 5.87891304 2.875 5 C1 4 1 4 0.25 1.875 C0.1675 1.25625 0.085 0.6375 0 0 Z " fill="#BFA458" transform="translate(439,116)"/>
<path d="M0 0 C0 3.90838866 -1.50567876 5.11594107 -4 8 C-4.99 7.67 -5.98 7.34 -7 7 C-2.25 1.125 -2.25 1.125 0 0 Z " fill="#0F2C43" transform="translate(411,212)"/>
<path d="M0 0 C4.30764815 1.56641751 8.06171464 3.68336156 12 6 C11.34 6.66 10.68 7.32 10 8 C8.32819726 7.05065487 6.66266064 6.09026687 5 5.125 C4.071875 4.59132813 3.14375 4.05765625 2.1875 3.5078125 C1.465625 3.01023437 0.74375 2.51265625 0 2 C0 1.34 0 0.68 0 0 Z " fill="#FAF3D5" transform="translate(410,113)"/>
<path d="M0 0 C1.46313772 0.76167457 2.92036661 1.53470707 4.375 2.3125 C5.18710937 2.74175781 5.99921875 3.17101562 6.8359375 3.61328125 C9 5 9 5 11 8 C4.35384615 6.52307692 4.35384615 6.52307692 2.5625 3.875 C2.376875 3.25625 2.19125 2.6375 2 2 C1.34 2 0.68 2 0 2 C0 1.34 0 0.68 0 0 Z " fill="#C4A960" transform="translate(426,107)"/>
<path d="M0 0 C3.7910119 1.44950455 7.3874638 3.15172566 11 5 C10.67 5.99 10.34 6.98 10 8 C8.33055479 6.85821872 6.6645052 5.71147095 5 4.5625 C4.071875 3.92441406 3.14375 3.28632812 2.1875 2.62890625 C1.465625 2.09136719 0.74375 1.55382812 0 1 C0 0.67 0 0.34 0 0 Z " fill="#F9F4D8" transform="translate(365,76)"/>
<path d="M0 0 C2 3 2 3 1.625 5.1875 C1.41875 5.785625 1.2125 6.38375 1 7 C1.66 7.33 2.32 7.66 3 8 C0.525 9.485 0.525 9.485 -2 11 C-1.34 7.37 -0.68 3.74 0 0 Z " fill="#2D4153" transform="translate(253,180)"/>
<path d="M0 0 C0.66 0 1.32 0 2 0 C2.33 1.65 2.66 3.3 3 5 C2.01 5.495 2.01 5.495 1 6 C0.67 6.99 0.34 7.98 0 9 C-0.66 9 -1.32 9 -2 9 C-1.34 6.03 -0.68 3.06 0 0 Z " fill="#C8D8E1" transform="translate(100,572)"/>
<path d="M0 0 C0.66 0.66 1.32 1.32 2 2 C1.34 2.66 0.68 3.32 0 4 C-0.99 3.67 -1.98 3.34 -3 3 C-2.01 2.01 -1.02 1.02 0 0 Z " fill="#1A3851" transform="translate(277,445)"/>
<path d="M0 0 C0.33 0.99 0.66 1.98 1 3 C0.67 3.66 0.34 4.32 0 5 C-2.35171131 4.40138258 -4.6859378 3.73075648 -7 3 C-7.33 2.34 -7.66 1.68 -8 1 C-6.865625 1.020625 -5.73125 1.04125 -4.5625 1.0625 C-1.18424326 1.41577477 -1.18424326 1.41577477 0 0 Z " fill="#263B4D" transform="translate(621,562)"/>
<path d="M0 0 C0 2.64 0 5.28 0 8 C-1.70884005 6.37660195 -3.37446717 4.70680947 -5 3 C-5 2.34 -5 1.68 -5 1 C-2 0 -2 0 0 0 Z " fill="#283E52" transform="translate(395,368)"/>
<path d="M0 0 C4.8 2.46153846 4.8 2.46153846 5.8125 5.1875 C5.874375 5.785625 5.93625 6.38375 6 7 C5.01 7.495 5.01 7.495 4 8 C0 2.25 0 2.25 0 0 Z " fill="#193751" transform="translate(285,291)"/>
<path d="M0 0 C1.32 0.33 2.64 0.66 4 1 C4 1.66 4 2.32 4 3 C5.98 3.66 7.96 4.32 10 5 C9.34 5.66 8.68 6.32 8 7 C6.66144944 6.21718695 5.32926356 5.42348123 4 4.625 C3.2575 4.18414062 2.515 3.74328125 1.75 3.2890625 C1.1725 2.86367187 0.595 2.43828125 0 2 C0 1.34 0 0.68 0 0 Z " fill="#F7F1D4" transform="translate(352,67)"/>
<path d="M0 0 C4.75 0.75 4.75 0.75 7 3 C4.36 3.33 1.72 3.66 -1 4 C-0.67 2.68 -0.34 1.36 0 0 Z " fill="#253F55" transform="translate(349,589)"/>
<path d="M0 0 C0.86625 0.3403125 0.86625 0.3403125 1.75 0.6875 C-2.75 3.6875 -2.75 3.6875 -7.25 6.6875 C-6.87492618 3.96821483 -6.40781339 2.84531339 -4.4375 0.875 C-2.25 -0.3125 -2.25 -0.3125 0 0 Z " fill="#173044" transform="translate(357.25,556.3125)"/>
<path d="M0 0 C0.99 0.33 1.98 0.66 3 1 C1.35 2.65 -0.3 4.3 -2 6 C-2.99 5.67 -3.98 5.34 -5 5 C-3.35 3.35 -1.7 1.7 0 0 Z " fill="#294359" transform="translate(401,449)"/>
<path d="M0 0 C3.29148243 1.13499394 3.9959869 1.99283376 5.75 5.125 C6.1625 6.07375 6.575 7.0225 7 8 C6.01 8 5.02 8 4 8 C0 2.74285714 0 2.74285714 0 0 Z " fill="#1D384F" transform="translate(367,338)"/>
<path d="M0 0 C0.66 0 1.32 0 2 0 C1.60196439 2.88575819 1.20990931 3.82189513 -1.0625 5.75 C-1.701875 6.1625 -2.34125 6.575 -3 7 C-3.66 6.67 -4.32 6.34 -5 6 C-3.38405168 3.95880212 -1.7143618 1.95927063 0 0 Z " fill="#1A374F" transform="translate(303,220)"/>
<path d="M0 0 C0.33 0.66 0.66 1.32 1 2 C-1.45614035 7 -1.45614035 7 -3 9 C-3.99 9.33 -4.98 9.66 -6 10 C-4.6302836 6.00499382 -2.74277578 3.19990508 0 0 Z " fill="#F8F1D4" transform="translate(396,212)"/>
<path d="M0 0 C0.99 0.66 1.98 1.32 3 2 C1.68 3.32 0.36 4.64 -1 6 C-1.99 5.67 -2.98 5.34 -4 5 C-2.68 3.35 -1.36 1.7 0 0 Z " fill="#1B3B53" transform="translate(413,207)"/>
<path d="M0 0 C2 1 2 1 3.1875 3.25 C4.08937081 6.30248582 3.86361585 7.97734454 3 11 C0.87953208 7.46588679 0.46800711 4.05606165 0 0 Z " fill="#102C44" transform="translate(480,196)"/>
<path d="M0 0 C3.77528304 1.25842768 4.10667045 2.62493429 6 6 C6.66 6.66 7.32 7.32 8 8 C7.01 8 6.02 8 5 8 C0 2.65116279 0 2.65116279 0 0 Z " fill="#1D364A" transform="translate(425,522)"/>
<path d="M0 0 C-0.66 0.66 -1.32 1.32 -2 2 C-2.99 2 -3.98 2 -5 2 C-5.99 2.66 -6.98 3.32 -8 4 C-8 2.68 -8 1.36 -8 0 C-5.13822943 -1.43088528 -3.06624227 -0.59991697 0 0 Z " fill="#F4EDD1" transform="translate(284,305)"/>
<path d="M0 0 C5 7.5 5 7.5 5 11 C4.01 10.67 3.02 10.34 2 10 C0.47839986 6.3962102 0 3.94779314 0 0 Z " fill="#223B50" transform="translate(214,287)"/>
<path d="M0 0 C0 4.38968456 -2.12805101 5.76905739 -5 9 C-5.66 8.67 -6.32 8.34 -7 8 C-4.69 5.36 -2.38 2.72 0 0 Z " fill="#0E273D" transform="translate(297,228)"/>
<path d="M0 0 C0 3.15081975 -0.27898465 4.41847698 -2 7 C-4.125 7.75 -4.125 7.75 -6 8 C-2.25 2.25 -2.25 2.25 0 0 Z " fill="#0F283F" transform="translate(424,194)"/>
<path d="M0 0 C3.465 1.98 3.465 1.98 7 4 C7 4.33 7 4.66 7 5 C4.625 5.125 4.625 5.125 2 5 C1.34 4.34 0.68 3.68 0 3 C0 2.01 0 1.02 0 0 Z " fill="#F8F3DA" transform="translate(422,120)"/>
<path d="M0 0 C1.32 0.33 2.64 0.66 4 1 C3.34 2.98 2.68 4.96 2 7 C0 4 0 4 0 0 Z " fill="#1D374B" transform="translate(380,557)"/>
<path d="M0 0 C0.99 0.33 1.98 0.66 3 1 C3 1.66 3 2.32 3 3 C-0.96 3 -4.92 3 -9 3 C-9 2.67 -9 2.34 -9 2 C-6.03 2 -3.06 2 0 2 C0 1.34 0 0.68 0 0 Z " fill="#21384D" transform="translate(462,529)"/>
<path d="M0 0 C2.475 0.495 2.475 0.495 5 1 C3.68 2.32 2.36 3.64 1 5 C0.67 3.35 0.34 1.7 0 0 Z " fill="#E4EEF3" transform="translate(383,462)"/>
<path d="M0 0 C0.99 0.495 0.99 0.495 2 1 C2 1.66 2 2.32 2 3 C2.99 3 3.98 3 5 3 C5.33 4.98 5.66 6.96 6 9 C0.42857143 3.85714286 0.42857143 3.85714286 0 0 Z " fill="#193249" transform="translate(341,365)"/>
<path d="M0 0 C0.33 0.66 0.66 1.32 1 2 C-0.8125 5 -0.8125 5 -3 8 C-3.99 8 -4.98 8 -6 8 C-4.02 5.36 -2.04 2.72 0 0 Z " fill="#F7F0D0" transform="translate(414,189)"/>
<path d="M0 0 C0.33 0.66 0.66 1.32 1 2 C-0.8125 5 -0.8125 5 -3 8 C-3.99 8 -4.98 8 -6 8 C-4.02 5.36 -2.04 2.72 0 0 Z " fill="#F8F0D2" transform="translate(437,160)"/>
<path d="M0 0 C3.68754757 0.49831724 5.60490662 1.10067643 8 4 C7.67 4.66 7.34 5.32 7 6 C5.83054208 5.19152271 4.66449539 4.37810888 3.5 3.5625 C2.8503125 3.11003906 2.200625 2.65757812 1.53125 2.19140625 C1.0259375 1.79824219 0.520625 1.40507812 0 1 C0 0.67 0 0.34 0 0 Z " fill="#F7F2DA" transform="translate(409,147)"/>
<path d="M0 0 C0.66 0 1.32 0 2 0 C0.70700306 2.88437779 -0.65941363 4.87219421 -3 7 C-3.66 6.67 -4.32 6.34 -5 6 C-3.38405168 3.95880212 -1.7143618 1.95927063 0 0 Z " fill="#112C42" transform="translate(227,139)"/>
<path d="M0 0 C0.66 0 1.32 0 2 0 C3.85776765 3.13498292 4.20140476 5.37471432 4 9 C2 8 2 8 1.3671875 6.15234375 C1.20476562 5.42144531 1.04234375 4.69054687 0.875 3.9375 C0.70742188 3.20402344 0.53984375 2.47054687 0.3671875 1.71484375 C0.24601562 1.14894531 0.12484375 0.58304688 0 0 Z " fill="#F4F2E3" transform="translate(418,135)"/>
<path d="M0 0 C3.375 0.75 3.375 0.75 7 2 C7.66 3.32 8.32 4.64 9 6 C6.03 4.35 3.06 2.7 0 1 C0 0.67 0 0.34 0 0 Z " fill="#F7EECE" transform="translate(419,102)"/>
</svg>
